<?xml version="1.0" encoding="UTF-8"?>
<svg xmlns="http://www.w3.org/2000/svg" id="Capa_1" data-name="Capa 1" viewBox="0 0 119.62 141.34">
  <defs>
    <style>.cls-1{fill:#1a3c34;}</style>
  </defs>
  <path class="cls-1" d="M62.65,145.67l-1.3-.52s-4-1.59-8.27-3.69l-.09-.05C38.76,133.77,5.37,112.7,2.86,82.3V10.63l.2-.57C4.23,6.69,7.91,4.33,12,4.33H113.32c4.08,0,7.76,2.36,8.94,5.74l.08.21.12.73V82.23c-2.52,30.46-35.88,51.53-50.11,59.17l-.08,0c-4.3,2.12-8.28,3.71-8.32,3.72Zm-7.13-9.07c3,1.48,5.86,2.69,7.13,3.21,1.28-.53,4.14-1.74,7.16-3.22,6.12-3.3,17.86-10.24,28-19.91,11.73-11.2,18.2-22.9,19.21-34.79V11.62a4.19,4.19,0,0,0-3.7-1.85H12a4.22,4.22,0,0,0-3.71,1.85V82c1,11.85,7.48,23.54,19.21,34.73A135,135,0,0,0,55.52,136.6Z" transform="translate(-2.85 -4.33)"></path>
  <path class="cls-1" d="M53.87,85.59a10.12,10.12,0,0,1,7.42.21c-.71-2.67,1.86-7.44,2.58-8.71A55.58,55.58,0,0,0,53.87,85.59ZM38.32,59.33c-3.53.66-8,3.44-10.85,5.39C26,69.14,23.39,78,23.22,83.47V85c2-4.9,5.27-6.09,5.27-6.09s-.71,23.26,12.41,35.85l.42.4-.26-.4C20.7,83.92,38.32,59.33,38.32,59.33ZM57.13,97.14c-4.35,6.11,2.92,17.35,3.51,18.25-5.31,2.67-12,1.12-15.1.15v1.87c29.73,13.36,45.06-10,45.06-10C62.92,116,57.13,97.14,57.13,97.14Zm43.19-51.7s-4.55,4.67-10.74,5.05a23.93,23.93,0,0,1,11.24-10.74c2.35-.56.63-1.15.63-1.15A44.26,44.26,0,0,0,90,37.15a66.39,66.39,0,0,0-16.1,2.46l-.42.08c-1.36.38-2.89.85-4.54,1.42A67.09,67.09,0,0,0,43,56.37a37.62,37.62,0,0,0-4.83,6.19c-3.88,7.44-11.11,27,3.65,50.61-1.24-6.62.89-13.21,3.43-18.26a48.22,48.22,0,0,1,14-16.81q2.19-1.71,4.75-3.36l1.3-1c9.15-6.3,24.22-16.4,24.22-16.4h0c3.31-2,11.53-7.42,12.64-11C102.09,46.32,102.21,44.3,100.32,45.44ZM74.53,61.17C69.12,56,72,46.1,72,46.1l2.09,1.7c-2.85,5.45,1.06,13.28,1.06,13.28C75,61.7,74.53,61.17,74.53,61.17Z" transform="translate(-2.85 -4.33)"></path>
  <path class="cls-1" d="M74.78,30.67V18.77h1.86V29h8.83v1.72Z" transform="translate(-2.85 -4.33)"></path>
  <path class="cls-1" d="M98.09,29.15,99,27.59a10.78,10.78,0,0,0,2.67,1.28,9.39,9.39,0,0,0,2.77.46,4.59,4.59,0,0,0,2.57-.65A1.93,1.93,0,0,0,108,27a1.62,1.62,0,0,0-.89-1.52,6.46,6.46,0,0,0-2.81-.55,9.87,9.87,0,0,1-4.46-.75,2.5,2.5,0,0,1-1.21-2.35,2.88,2.88,0,0,1,1.33-2.47,6.12,6.12,0,0,1,3.57-.93,10.21,10.21,0,0,1,3,.43,11.25,11.25,0,0,1,2.78,1.28l-.93,1.55a9.28,9.28,0,0,0-2.39-1.16,8,8,0,0,0-2.46-.42,4.28,4.28,0,0,0-2.17.48,1.4,1.4,0,0,0-.82,1.24,1.17,1.17,0,0,0,.83,1.13,8.64,8.64,0,0,0,2.87.33,7.79,7.79,0,0,1,4.29,1,3.19,3.19,0,0,1,1.45,2.86,3.4,3.4,0,0,1-1.47,2.8A6.15,6.15,0,0,1,104.65,31a12.41,12.41,0,0,1-6.56-1.89Z" transform="translate(-2.85 -4.33)"></path>
  <path class="cls-1" d="M22.49,16.55a7.67,7.67,0,0,1,5.56,2,7,7,0,0,1,2.11,5.3,7,7,0,0,1-2.08,5.27,7.74,7.74,0,0,1-5.59,2H16.24V16.55Zm0,1.68H18.05V29.46h4.44A5.79,5.79,0,0,0,26.73,28a5.46,5.46,0,0,0,1.55-4.09,5.45,5.45,0,0,0-1.57-4.08A5.77,5.77,0,0,0,22.49,18.23Z" transform="translate(-2.85 -4.33)"></path>
  <path class="cls-1" d="M38.38,31a7.64,7.64,0,0,1-5.23-1.8,5.75,5.75,0,0,1-2-4.51,5.67,5.67,0,0,1,2-4.5,7.64,7.64,0,0,1,5.23-1.78,7.72,7.72,0,0,1,5.25,1.77,5.7,5.7,0,0,1,2,4.51,5.75,5.75,0,0,1-2,4.52A7.72,7.72,0,0,1,38.38,31Zm0-1.74A5.75,5.75,0,0,0,42.26,28a4.3,4.3,0,0,0,0-6.55,5.7,5.7,0,0,0-3.87-1.3,5.72,5.72,0,0,0-3.87,1.29,4.34,4.34,0,0,0,0,6.56A5.72,5.72,0,0,0,38.38,29.3Z" transform="translate(-2.85 -4.33)"></path>
  <path class="cls-1" d="M46.71,18.8h1.87v7.62a2.73,2.73,0,0,0,.81,2.31,5.8,5.8,0,0,0,3.2.6,5.89,5.89,0,0,0,3.22-.6,2.73,2.73,0,0,0,.81-2.31V18.8h1.85v8.1a3.59,3.59,0,0,1-1.39,3.17,8,8,0,0,1-4.52,1,8,8,0,0,1-4.48-1,3.62,3.62,0,0,1-1.37-3.18Z" transform="translate(-2.85 -4.33)"></path>
  <path class="cls-1" d="M68.49,26V24.33h4.9v3.59a6.66,6.66,0,0,1-2.69,2.33,8.77,8.77,0,0,1-3.85.79,8,8,0,0,1-5.37-1.77,5.91,5.91,0,0,1,0-9,8,8,0,0,1,5.36-1.79,9,9,0,0,1,3.66.71,6.73,6.73,0,0,1,2.66,2.09l-1.44,1a5,5,0,0,0-2-1.55,6.93,6.93,0,0,0-2.84-.57,6,6,0,0,0-4,1.3,4.22,4.22,0,0,0,0,6.54,6,6,0,0,0,4,1.3,7.16,7.16,0,0,0,2.84-.56,3.72,3.72,0,0,0,1.82-1.42V26Z" transform="translate(-2.85 -4.33)"></path>
  <path class="cls-1" d="M84.41,30.67l6-11.9h1.18l6.1,11.9h-2l-1.54-3H87.91l-1.54,3Zm4.3-4.6h4.66l-2.32-4.56Z" transform="translate(-2.85 -4.33)"></path>
</svg>
