<?xml version="1.0" encoding="UTF-8"?>
<svg xmlns="http://www.w3.org/2000/svg" id="Layer_1" viewBox="0 0 332.64 78.37">
  <path d="m85.99,37.75h-1.44c-2.96,0-5.09,2.01-5.09,4.93,0,2.24.65,4.76,3.55,4.76,2.72,0,3.25-2.01,3.25-4.19v-5.27s.08-.24-.27-.24Zm11.32,11.42h1.3c.46,0,.37.32.37.32v2.81c0,.46-.44.31-.44.31h-11.21s-.23.03-.31-.31c-.16-.67-.37-1.44-.47-2.04-.11-.6-.51-.01-.51-.01-2.31,1.84-4.81,3.22-7.99,3.22-5.38,0-9.41-3.38-9.41-8.72,0-6.66,4.26-10.44,9.52-10.44l8.01-.2s.1-.02.1-.34v-.9c0-2.35-1.3-3.34-3.9-3.34-3.33,0-4.87,1.21-6.42,3.11,0,0-.1.23-.42.08-.32-.14-3.17-1.14-3.17-1.14,0,0-.25-.02-.11-.37.14-.35,3.57-8.77,3.57-8.77,0,0,.03-.29.31-.19.42.16,2.64.84,3.03.98.35.14.21.44.21.44,0,0-.11.38-.24.7-.28.67.2.38.2.38,2.21-.85,4.45-1.19,6.79-1.19,6.62,0,11,2.75,11,9.52v15.54s-.06.53.22.53Zm.67-23.47c4.43-1.27,8.4-4.23,10.26-8.38,0,0,.03-.31.35-.24.32.07,2.57.46,3.06.55.35.07.2.28.2.28-.27,1.37-.36,3-.36,4.23v2.06c0,.32.22.23.22.23h4.82c.28,0,.17.26.17.26,0,0-.72,3.55-.8,3.97-.07.35-.32.24-.32.24h-3.83c-.32,0-.26.22-.26.22v16.37c0,1.78,1.54,2.13,2.42,2.13s1.05.02,1.74-.34c0,0,.25-.23.36.12.09.29,1.07,2.61,1.17,2.84.13.29-.13.37-.13.37-3.8,2.72-4.15,2.85-8.95,2.85-5.38,0-7.45-2.58-7.45-7.57v-16.77s.08-.22-.2-.22h-2.5s-.2.11-.2-.28v-2.64c0-.25.21-.3.21-.3Zm79.75,12.8c0-9.24,7.28-14.92,16.68-14.92s16.74,5.68,16.74,14.92-7.28,14.98-16.74,14.98-16.68-5.68-16.68-14.98Zm10.83-4.07c0,4.13,1.77,14.69,7.75,14.69,3.19,0,4.02-3.39,4.02-6.48,0-4.13-1.77-14.69-7.75-14.69-4.02,0-4.02,4.36-4.02,6.48Zm55.85,18.19h-14.55s-.25.04-.25-.21v-2.99c0-.28.32-.25.32-.25h1.72c.28,0,.2-.21.2-.21v-15.97c0-1.66-1.54-2.52-3.13-2.52-1.91,0-3.29,1.04-4.64,2.17,0,0-.21.15-.21.43v15.89s-.06.21.22.21h1.79s.29-.1.29.25v2.99c0,.25-.22.21-.22.21h-14.8s-.18.11-.18-.28v-2.92c0-.35.18-.25.18-.25h1.69c.28,0,.2-.25.2-.25v-18.81s.14-.35-.28-.21-1.5.42-1.5.42c0,0-.29.14-.29-.18v-2.88c0-.32.25-.31.25-.31l12.48-3.3s.28-.15.28.17v4.11c0,.46.29.07.29.07,2.92-2.22,5.88-4.43,9.83-4.43,7.51,0,8.58,4.99,8.58,8.15v17.16s-.02.28.22.28h1.55s.24-.07.24.25v2.92c0,.39-.28.28-.28.28Zm15.01-28.96l-12.44,3.42s-.23.02-.23.26v2.78c0,.39.37.22.37.22,0,0,.8-.17,1.51-.28.35-.06.25.27.25.51v18.32s.1.28-.25.28h-1.76s-.24-.1-.24.28v2.92c0,.35.24.24.24.24h14.55c.35,0,.23-.28.23-.28,0,0,0-2.43,0-2.88,0-.39-.27-.28-.27-.28h-1.44c-.35,0-.24-.25-.24-.25v-25.07c0-.35-.28-.2-.28-.2Zm-4.51-8.68c2.54,0,5.26.63,5.26,3.61,0,3.61-4.67,4.88-7.63,4.88-2.37,0-4.02-1.2-4.02-3.56,0-2.81,3.84-4.93,6.39-4.93Zm-120.13,22.78h-1.44c-2.96,0-5.09,2.01-5.09,4.93,0,2.24.65,4.76,3.55,4.76,2.72,0,3.25-2.01,3.25-4.19v-5.27s.08-.24-.27-.24Zm11.32,11.42h1.3c.46,0,.37.32.37.32v2.81c0,.46-.44.31-.44.31h-11.21s-.23.04-.31-.31c-.16-.67-.37-1.44-.47-2.04-.11-.6-.52-.01-.52-.01-2.31,1.84-4.81,3.22-7.99,3.22-5.38,0-9.41-3.38-9.41-8.72,0-6.66,4.26-10.44,9.52-10.44l8.01-.2s.1-.02.1-.34v-.9c0-2.35-1.3-3.34-3.9-3.34-3.33,0-4.87,1.21-6.42,3.11,0,0-.1.23-.42.09s-3.17-1.14-3.17-1.14c0,0-.25-.02-.11-.37.14-.35,3.57-8.77,3.57-8.77,0,0,.03-.29.31-.19.42.16,2.64.84,3.03.98.35.14.21.44.21.44,0,0-.11.39-.24.7-.28.67.19.38.19.38,2.21-.85,4.45-1.19,6.79-1.19,6.63,0,11,2.75,11,9.52v15.54s-.06.53.22.53Zm11.47-18.13c0,3.1,1.83,11.76,6.27,11.76,2.19,0,3.08-1.09,3.08-3.84,0-3.1-1.83-11.76-6.27-11.76-2.19,0-3.08,1.09-3.08,3.84Zm4.61,23c-.43.46-.89,2.35-.89,3.62,0,1.43.77,2.98,2.43,2.98,1.48,0,2.25-.69,2.25-2.12,0-2.54-1.42-3.43-3.37-4.62,0,0-.15-.14-.42.14Zm11.79-29.62c-.61-.36-.68-.46-1.91-.39-.71.04-1.06.63-1.06,1.26,0,1.15,5.56,2.93,5.56,9.64,0,8.91-8.29,10.78-15.37,12.53,0,0-.8.17,0,.24,4.75.46,14.42,1.67,14.42,7.94s-8.58,7.75-12.13,7.75c-5.21,0-10.53-1.09-10.53-5.74,0-2.67,2.88-4.46,5.35-4.88,0,0,.74-.11,0-.2-.84-.11-5.54-.52-7.17-.18,0,0-.36.05-.47-.23-.15-.4-1.11-2.85-1.19-3.06-.18-.42.19-.44.19-.44,3.5-.56,6.55-2.41,8.02-2.83.78-.23,0-.34,0-.34-4.94-.87-9.74-4.23-9.74-10.09,0-8.26,6.74-11.82,13.19-11.82,2.98,0,4.67.47,6.25.71,0,0,.24.11.35-.25.15-.5.62-1.9.62-1.9.71-2.12,1.78-2.98,4.97-2.98.61,0,1.25.08,1.87.14,0,0,.32-.09.25.3-.06.32-1.1,4.46-1.16,4.71-.11.42-.3.11-.3.11Zm105.09,13.32h-1.44c-2.96,0-5.09,2.01-5.09,4.93,0,2.24.65,4.76,3.55,4.76,2.72,0,3.25-2.01,3.25-4.19v-5.27s.08-.24-.27-.24Zm11.32,11.42h1.3c.46,0,.37.32.37.32v2.81c0,.46-.44.31-.44.31h-11.21s-.23.04-.31-.31c-.16-.67-.37-1.44-.47-2.04-.11-.6-.52-.01-.52-.01-2.31,1.84-4.8,3.22-7.99,3.22-5.38,0-9.41-3.38-9.41-8.72,0-6.66,4.26-10.44,9.52-10.44l8.01-.2s.1-.02.1-.34v-.9c0-2.35-1.3-3.34-3.9-3.34-3.33,0-4.87,1.21-6.42,3.11,0,0-.1.23-.42.09s-3.17-1.14-3.17-1.14c0,0-.25-.02-.11-.37.14-.35,3.57-8.77,3.57-8.77,0,0,.03-.29.31-.19.42.16,2.64.84,3.03.98.35.14.21.44.21.44,0,0-.11.39-.24.7-.28.67.2.38.2.38,2.21-.85,4.45-1.19,6.79-1.19,6.63,0,11,2.75,11,9.52v15.54s-.06.53.22.53ZM49.07,30.39v14.09c0,2.52.83,4.65,3.67,4.65,3.55,0,5.09-2.18,5.09-8.61,0-10.33-5.21-10.84-7.04-10.84l-1.4.23s-.32.09-.32.48Zm.29-4.21c2.53-1.52,4.54-2.58,7.17-2.58,6.8,0,12.13,5.51,12.13,13.71s-5.09,16.18-13.84,16.18c-1.69,0-3.9-.21-5.49-1.01,0,0-.25-.11-.25.17v4.96s0,.47.35.47h3.16s.33-.02.33.37v2.67c0,.28-.29.4-.29.4h-16s-.45.02-.45-.37v-2.71c0-.42.35-.37.35-.37h1.34c.39,0,.39-.4.39-.4v-27.49c0-.39-.35-.25-.35-.25l-1.44.36s-.28.13-.28-.25v-2.88c0-.32.25-.3.25-.3l12.37-3.18s.28-.1.28.21v2.14c0,.28.29.14.29.14Z"></path>
  <path d="m295.36,24.1c-.74.74-1.62,1.11-2.67,1.11s-1.93-.37-2.66-1.11c-.73-.73-1.09-1.62-1.09-2.67s.37-1.92,1.1-2.66c.73-.73,1.62-1.1,2.65-1.1s1.93.37,2.67,1.1c.74.73,1.1,1.62,1.1,2.66s-.37,1.93-1.1,2.67Zm-4.96-4.96c-.63.63-.95,1.4-.95,2.29s.31,1.67.94,2.3c.63.64,1.4.95,2.3.95s1.67-.32,2.3-.95c.63-.64.95-1.4.95-2.3s-.32-1.66-.95-2.29c-.64-.63-1.4-.95-2.3-.95s-1.66.32-2.3.95Zm2.22.2c.52,0,.89.05,1.13.15.43.18.64.53.64,1.05,0,.37-.13.64-.4.82-.14.09-.34.16-.6.2.32.05.55.19.7.4.15.22.22.43.22.64v.3c0,.1,0,.2.01.31,0,.11.02.18.04.21l.03.05h-.68s0-.03,0-.04c0-.01,0-.03-.01-.05l-.02-.13v-.33c0-.48-.13-.79-.4-.95-.16-.09-.43-.13-.83-.13h-.59v1.62h-.7v-4.14h1.46Zm.79.67c-.19-.1-.49-.15-.91-.15h-.64v1.48h.68c.32,0,.55-.03.71-.09.29-.11.44-.33.44-.64,0-.3-.09-.5-.28-.6Z"></path>
</svg>
