<?xml version="1.0" encoding="UTF-8"?>
<svg id="Capa_1" data-name="Capa 1" xmlns="http://www.w3.org/2000/svg" viewBox="0 0 726 727">
  <defs>
    <style>
      .cls-1 {
        fill: #fff;
      }

      .cls-2 {
        fill: #006dc6;
      }
    </style>
  </defs>
  <circle class="cls-2" cx="363.5" cy="366" r="349.5"/>
  <g>
    <path class="cls-1" d="M295.8,374.04v7.38h14.47v10.12h-14.47v16.87h-11.95v-45.72h29.53v11.36h-17.58Z"/>
    <path class="cls-1" d="M348.04,396.98v11.36h-29.53v-45.55h12.1v34.19h17.44Z"/>
    <path class="cls-1" d="M355.38,388.68l-14.04-25.89h13.71l6.36,13.2,6.33-13.2h13.73l-14.07,25.89v19.67h-12.01v-19.67Z"/>
    <path class="cls-1" d="M415.62,374.04v7.38h14.47v10.12h-14.47v16.87h-11.95v-45.72h29.53v11.36h-17.58Z"/>
    <path class="cls-1" d="M438.33,362.79h12.1v45.55h-12.1v-45.55Z"/>
    <path class="cls-1" d="M455.96,400.63l7.32-7.18c1.89,2.8,5.43,4.49,9.24,4.49,2.57,0,5.09-.93,5.09-2.8,0-2.35-4.66-4.41-9.13-6.39-5.76-2.49-10.71-6.27-10.71-13.14,0-7.88,7.49-13.51,16.14-13.51,6.95,0,12.38,3.28,14.16,7.77l-6.98,6.73c-1.36-2.4-4.86-3.45-7.04-3.45-2.49,0-4.27,1.27-4.27,2.83,0,2.09,3.22,2.77,8.14,4.83,7.12,3,11.84,7.35,11.84,14.07,0,8.68-8.08,14.07-17.21,14.07-7.49,0-14.3-3.31-16.59-8.34Z"/>
    <path class="cls-1" d="M532.98,362.79v45.55h-12.07v-17.15h-13.54v17.15h-12.1v-45.55h12.1v17.1h13.54v-17.1h12.07Z"/>
    <path class="cls-1" d="M540.88,362.79h12.09v45.55h-12.09v-45.55Z"/>
    <path class="cls-1" d="M600.25,362.73v46.06h-3.84l-23.43-22.69v22.27h-12.1v-46.03h3.9l23.34,22.61v-22.21h12.12Z"/>
    <path class="cls-1" d="M654.98,386.61c0,13.85-10.46,22.81-23.4,22.81-14.47,0-25.4-10.79-25.4-23.79s10.96-23.94,25.09-23.94c5.79.08,12.49,2.54,16.25,6.02l-6.7,9.18c-2.54-2.37-6.19-3.9-9.55-3.9-6.78,0-12.75,5.57-12.75,12.6,0,6.39,5.12,12.6,13.54,12.6,5.51,0,9.44-2.66,9.61-7.01h-10.43v-9.01h23.37c.23,1.53.37,3,.37,4.44Z"/>
  </g>
  <g>
    <path class="cls-1" d="M283.85,329.56c0-12.31,10.22-22.56,22.51-22.56,5.63.05,11.09,2.64,15.06,6.63l-2.88,3.89c-3.15-3.23-7.56-5.49-12.37-5.49-8.81,0-17.32,7.61-17.32,17.53s8.43,17.48,17.4,17.48c4.95,0,9.16-2.34,12.31-5.44l2.85,3.97c-3.64,3.61-8.56,6.44-15.03,6.44-12.18,0-22.53-10.03-22.53-22.45Z"/>
    <path class="cls-1" d="M359.49,307.62v43.82h-4.92v-19.49h-22.21v19.49h-4.95v-43.82h4.95v19.44h22.21v-19.44h4.92Z"/>
    <path class="cls-1" d="M368.73,307.62h4.95v43.82h-4.95v-43.82Z"/>
    <path class="cls-1" d="M409.34,346.52v4.92h-26.42v-43.82h4.95v38.9h21.47Z"/>
    <path class="cls-1" d="M420.29,312.49v13.86h18.02v4.95h-18.02v15.22h20.79v4.92h-25.74v-43.82h25.74v4.87h-20.79Z"/>
  </g>
  <g>
    <path class="cls-1" d="M525.65,269.98c4.03-15.82,5.41-35.89,1.52-61.16l.03-.06s12.8-10.05,11.04,2.97c-1.26,9.29-6.91,37.6-12.53,58.2-.02.02-.04.04-.07.06Z"/>
    <path class="cls-1" d="M514.75,305.66c7.27,1.32,14.41,3.15,21.23,6.04,8.54,3.62,15.96,8.72,21.26,16.51,2.3,3.38,3.97,7.04,4.11,11.2.15,4.59-1.34,8.5-5.44,10.94-4.06,2.42-7.69,1.15-12-.56-3.11-1.23-5.54-2.61-8.34-3.88-1.41-.64-4.64-2.59-6.03-3.31.01,0,.03,0,.04.01.55.19,1.1.38,1.65.57,1.19.41,2.39.82,3.58,1.23,1.48.51,2.96,1.02,4.44,1.53,1.44.49,2.87.99,4.31,1.48,1.27.43,2.54.85,3.8,1.3,1.06.38,2.32.6,3.44.61,1.71.02,3.34-.65,4.66-1.71,1.23-.98,2.17-2.45,2.66-3.94,1.07-3.26.54-6.43-.75-9.49-2.37-5.6-6.33-9.92-11.11-13.56-6.31-4.8-13.54-7.63-21.09-9.76-2.54-.72-5.1-1.36-7.66-1.94l-12.87-4.92c3.37.5,6.74,1.05,10.09,1.66Z"/>
    <path class="cls-1" d="M515.3,197.82c2-1.02,3.97-1.09,5.87-.22l-.61,1.33c-1.49-.69-2.99-.62-4.59.19-16.66,8.49-33.02,90.55-33.18,91.38l-1.43-.28c.67-3.41,16.66-83.59,33.95-92.4Z"/>
    <path class="cls-1" d="M518.38,275.59c7.01-11.68,13.71-32.69,5.79-66.45l.71-.17c3.52,15.02,4.49,28.81,2.87,41-1.3,9.76-4.25,18.52-8.77,26.04-7.71,12.81-17.46,17.63-17.56,17.67l-.32-.66c.1-.05,9.68-4.79,17.28-17.43Z"/>
    <g>
      <path class="cls-1" d="M485.4,285.08c.18-.73,18.15-73.11,25.69-80.02l-.25-.27c-7.63,6.98-25.06,77.21-25.8,80.2l.35.09Z"/>
      <path class="cls-1" d="M494.34,260.92c.16-.57,16.05-57.41,21.77-59.84l-.14-.34c-5.88,2.5-21.33,57.73-21.98,60.08l.35.1Z"/>
      <path class="cls-1" d="M500.92,247.6c.16-.34,15.66-34.43,22.88-36.62l-.11-.35c-7.38,2.24-22.46,35.41-23.1,36.82l.33.15Z"/>
      <path class="cls-1" d="M506.17,229.17c.1-.21,10.1-21.23,15.34-22.53l-.09-.35c-5.41,1.34-15.17,21.85-15.58,22.73l.33.16Z"/>
      <path class="cls-1" d="M509.82,217.79c.05-.11,4.62-11.48,9.84-16.12l-.24-.27c-5.28,4.69-9.89,16.14-9.94,16.26l.34.14Z"/>
      <rect class="cls-1" x="503.41" y="234.73" width=".18" height="4.27" transform="translate(59.58 572.36) rotate(-62.27)"/>
      <rect class="cls-1" x="504.66" y="231.41" width=".18" height="4.8" transform="translate(69.01 579.61) rotate(-63.29)"/>
      <rect class="cls-1" x="505.75" y="225.17" width=".37" height="2.32" transform="translate(106.54 610.62) rotate(-68)"/>
      <rect class="cls-1" x="508.24" y="211.26" width=".18" height="2.51" transform="translate(106.92 589.92) rotate(-65.92)"/>
      <rect class="cls-1" x="514.67" y="215.12" width=".18" height="4.11" transform="translate(67.73 552.3) rotate(-59.73)"/>
      <rect class="cls-1" x="519.94" y="208" width=".18" height="4.76" transform="translate(25.91 475.96) rotate(-50.28)"/>
      <rect class="cls-1" x="501.79" y="228.94" width=".18" height="2.84" transform="translate(108.47 617.89) rotate(-69.22)"/>
      <rect class="cls-1" x="510.44" y="206.19" width=".18" height="2.4" transform="translate(166.28 637.67) rotate(-73.45)"/>
      <rect class="cls-1" x="512.94" y="212.32" width=".37" height="2.52" transform="translate(104.25 590.06) rotate(-65.24)"/>
      <rect class="cls-1" x="515.24" y="208.15" width=".18" height="3.23" transform="translate(41.27 501.02) rotate(-53.71)"/>
      <rect class="cls-1" x="492.21" y="257.92" width="2.82" height=".37" transform="translate(-34.49 80.97) rotate(-9.06)"/>
    </g>
    <polygon class="cls-1" points="479.18 301.46 479.2 301.52 479.2 301.53 499.99 321.97 480.07 303.14 487.05 316.15 480.29 304.4 488.24 323.67 478.98 302.55 478.98 312.78 478.26 301.29 479.18 301.46"/>
    <path class="cls-1" d="M456.84,258.73l22.7,30.97,1.69-.05,2.36-29.73-3.35,26.07c-.13-.49-.26-1-.4-1.53-.05-.2-.11-.4-.16-.6l-6.31-45.97,5.26,42.08c-.29-1.08-.59-2.2-.9-3.36-.78-2.87-1.62-5.94-2.46-9-.85-3.06-1.71-6.12-2.51-8.98-.81-2.86-1.57-5.54-2.22-7.83-.66-2.29-1.22-4.19-1.6-5.53-.39-1.33-.62-2.09-.62-2.09,0,0,.2.77.54,2.12.35,1.34.86,3.26,1.46,5.57.62,2.3,1.34,4.98,2.11,7.86.78,2.87,1.62,5.94,2.46,9,.85,3.06,1.71,6.12,2.51,8.98.52,1.84,1.02,3.59,1.48,5.22l.19,1.5-15.35-43.1,15.25,47.11c-4.85-6.59-22.12-28.69-22.12-28.69ZM479.9,285.51c.1.33.19.64.28.95v.06s-.22-.59-.22-.59l-.06-.43Z"/>
    <polygon class="cls-1" points="527.33 271.65 510.03 292.92 522.48 284.99 511.27 292.61 529.9 283.24 509.52 294.05 519.72 293.29 508.25 294.87 508.78 293.56 527.33 271.65"/>
    <path class="cls-1" d="M493.27,283.29c.22-.61,22.42-60.74,30.63-65.32l-.2-.37c-8.35,4.66-29.9,63.06-30.82,65.54l.39.15Z"/>
    <path class="cls-1" d="M503.18,264.29c5.87-25.48,22.49-38.36,22.66-38.49l-.25-.33c-.17.13-16.91,13.1-22.82,38.73l.41.09Z"/>
    <path class="cls-1" d="M498.47,287.39h.42c0-.61,1.6-12.42,5.97-24.86,3.88-11.06,10.81-24.76,21.72-27.27l-.09-.41c-11.1,2.55-18.11,16.39-22.03,27.54-4.39,12.49-5.99,24.39-5.99,25Z"/>
    <path class="cls-1" d="M501.46,288.77c0-.09.57-9.63,3.95-19.98,3.11-9.52,9.31-21.71,21.19-25.66l-.13-.4c-12.04,4.01-18.32,16.32-21.46,25.94-3.39,10.4-3.96,19.98-3.97,20.08l.42.02Z"/>
    <path class="cls-1" d="M505.39,275.72c2.94-7.2,8.82-16.66,20.12-20.81l.14.39c-21.35,7.83-23.53,34.94-23.55,35.21l-.42-.03c0-.07.53-6.98,3.71-14.77Z"/>
    <path class="cls-1" d="M503.71,288.78c.02-.19,2.37-18.7,18.99-23.51l-.12-.4c-16.89,4.89-19.27,23.67-19.29,23.86l.42.05Z"/>
    <rect class="cls-1" x="514" y="245.48" width=".42" height="4.91" transform="translate(-14.95 462.11) rotate(-47.78)"/>
    <rect class="cls-1" x="512.56" y="255.9" width=".42" height="6.6" transform="translate(-38.34 421.66) rotate(-43.24)"/>
    <rect class="cls-1" x="506.76" y="267.27" width=".42" height="3.53" transform="translate(70.47 641.69) rotate(-68.44)"/>
    <rect class="cls-1" x="499.91" y="268.23" width=".42" height="4.11" transform="translate(187 744.76) rotate(-84.97)"/>
    <rect class="cls-1" x="514.24" y="263.33" width=".42" height="5.28" transform="translate(-52.14 385.87) rotate(-39.29)"/>
    <rect class="cls-1" x="520.04" y="247.2" width=".21" height="9.84" transform="translate(-57.33 227.02) rotate(-23.37)"/>
    <rect class="cls-1" x="503.09" y="258.53" width=".42" height="1.81" transform="translate(121.99 678.04) rotate(-74.94)"/>
    <rect class="cls-1" x="505.8" y="276.6" width=".42" height="2.22" transform="translate(10.28 573.38) rotate(-59.57)"/>
    <rect class="cls-1" x="500.66" y="280.53" width=".42" height="2.64" transform="translate(120.73 712.89) rotate(-77.96)"/>
    <rect class="cls-1" x="518.89" y="259.04" width=".21" height="7.1" transform="translate(-54.96 168.36) rotate(-17.51)"/>
    <rect class="cls-1" x="502.17" y="273.3" width=".42" height="2.33" transform="translate(109.19 690.53) rotate(-75.27)"/>
    <path class="cls-1" d="M490.81,286.13c.06-.25,6.12-24.76,13.87-41.98l-.38-.17c-7.77,17.26-13.83,41.81-13.89,42.05l.41.1Z"/>
    <polygon class="cls-1" points="499.71 265.94 499.79 265.75 496.85 264.42 496.76 264.61 499.71 265.94"/>
    <rect class="cls-1" x="489.11" y="278.2" width=".21" height="5.32" transform="translate(88.58 677.99) rotate(-74.61)"/>
    <polygon class="cls-1" points="495.12 277.81 495.17 277.61 493.02 277.05 492.97 277.25 495.12 277.81"/>
    <rect class="cls-1" x="502.28" y="245.44" width=".42" height="1.85" transform="translate(10.42 512.93) rotate(-54.56)"/>
    <rect class="cls-1" x="519.74" y="224.59" width=".42" height="5.39" transform="translate(22.21 499.79) rotate(-52.31)"/>
    <rect class="cls-1" x="517.76" y="234.92" width=".21" height="4.26" transform="translate(-8.2 455.29) rotate(-47.13)"/>
    <rect class="cls-1" x="512.38" y="227.14" width=".42" height="5.3" transform="translate(100.71 611.77) rotate(-66.99)"/>
    <rect class="cls-1" x="508.36" y="235.07" width=".42" height="5.57" transform="translate(60.08 575.61) rotate(-62.05)"/>
    <rect class="cls-1" x="513.5" y="235.35" width=".42" height="2.86" transform="translate(96.89 619.17) rotate(-67.28)"/>
    <rect class="cls-1" x="518.24" y="240.48" width=".42" height="6.21" transform="translate(-25.06 424.46) rotate(-43.57)"/>
    <rect class="cls-1" x="504.55" y="264.63" width=".42" height="2.66" transform="translate(83.07 650.28) rotate(-70.13)"/>
    <rect class="cls-1" x="498.1" y="273.58" width=".42" height="4.79" transform="translate(148.85 725.81) rotate(-81.14)"/>
    <rect class="cls-1" x="491.71" y="268.11" width=".42" height="5.59" transform="translate(147.47 714.44) rotate(-81.01)"/>
    <rect class="cls-1" x="494.13" y="259.56" width=".42" height="5.92" transform="translate(91.33 650.94) rotate(-71.91)"/>
    <rect class="cls-1" x="498.15" y="252.03" width=".42" height="3.91" transform="translate(85.34 631.19) rotate(-69.41)"/>
    <path class="cls-1" d="M506.22,287.88c.02-.1,1.7-10.22,11.25-14.88.52-.25,1.06-.49,1.6-.7l-.15-.39c-.56.22-1.11.46-1.63.71-9.76,4.76-11.47,15.09-11.48,15.2l.42.06Z"/>
    <rect class="cls-1" x="515.7" y="268.67" width=".42" height="4.66" transform="translate(-55.62 384.82) rotate(-38.98)"/>
    <rect class="cls-1" x="510.97" y="273.2" width=".42" height="3.7" transform="translate(-43.84 445.08) rotate(-45.32)"/>
    <rect class="cls-1" x="510.75" y="267.64" width=".42" height="3.95" transform="translate(-17.81 502.38) rotate(-51.58)"/>
    <rect class="cls-1" x="509.79" y="280.96" width=".42" height="4.6" transform="translate(81.49 679.13) rotate(-71.78)"/>
    <rect class="cls-1" x="505.1" y="284.63" width=".42" height="2.34" transform="translate(103.94 705.22) rotate(-75.75)"/>
    <rect class="cls-1" x="515.34" y="274.16" width=".42" height="4.48" transform="translate(-9.46 534.4) rotate(-54.37)"/>
    <rect class="cls-1" x="515.46" y="251.79" width=".42" height="8.14" transform="translate(-59.61 276.63) rotate(-28.46)"/>
    <rect class="cls-1" x="506.85" y="258.75" width=".42" height="2.97" transform="translate(75.62 632.64) rotate(-67.97)"/>
    <rect class="cls-1" x="510.03" y="251.95" width=".42" height="3.7" transform="translate(45.3 583.34) rotate(-61.77)"/>
    <rect class="cls-1" x="502.45" y="251.7" width=".42" height="3.92" transform="translate(79.79 625.39) rotate(-68.09)"/>
    <rect class="cls-1" x="499.38" y="259.82" width=".42" height="3.51" transform="translate(20.62 559.23) rotate(-59.5)"/>
    <path class="cls-1" d="M512.64,304.31c-2.45-.45-4.58-.91-6.34-1.3-1.76-.4-3.14-.75-4.09-.99-.49-.13-.86-.24-1.11-.3-.25-.07-.38-.11-.38-.11h0c1.54-1.18,4.66-3.65,6.53-5.86.27.08.55.16.85.25,1.65.47,3.66,1.03,5.99,1.6,2.33.58,4.98,1.19,7.89,1.78,2.9.61,6.07,1.18,9.44,1.73,1.68.26,3.41.54,5.19.78,1.77.26,3.59.48,5.44.7,1.85.23,3.74.4,5.64.6,1.91.15,3.85.35,5.8.47,1.95.13,3.93.27,5.91.35.99.05,1.98.09,2.98.14l2.99.08c1.99.07,3.99.07,5.97.08,1.99.03,3.97-.03,5.93-.06,3.93-.08,7.8-.25,11.53-.5,1.87-.09,3.71-.28,5.5-.42.9-.08,1.79-.14,2.67-.23.88-.09,1.74-.19,2.6-.28,3.42-.33,6.64-.81,9.62-1.19,1.48-.23,2.91-.46,4.26-.67.68-.11,1.34-.21,1.98-.31.18-.03.35-.06.53-.1.44-.16.91-.33,1.41-.51.8-.31,1.67-.62,2.58-.99.91-.36,1.88-.74,2.86-1.17.99-.41,2-.86,3.02-1.33,1.03-.45,2.05-.97,3.08-1.46,1.03-.5,2.03-1.05,3.03-1.57.98-.55,1.94-1.1,2.87-1.64.9-.58,1.79-1.12,2.61-1.66.8-.57,1.56-1.1,2.26-1.6.67-.54,1.28-1.03,1.82-1.47.56-.42.97-.87,1.34-1.2.73-.69,1.14-1.08,1.14-1.08,0,0-.41.39-1.14,1.08-.37.34-.78.79-1.34,1.21-.54.44-1.15.93-1.82,1.47-.7.5-1.46,1.04-2.26,1.61-.82.54-1.7,1.09-2.6,1.67-.92.54-1.88,1.09-2.86,1.65-1,.52-2,1.07-3.02,1.58-1.03.5-2.05,1.02-3.08,1.47-1.02.47-2.03.92-3.02,1.34-.98.43-1.95.81-2.86,1.18-.91.37-1.78.69-2.58,1-.29.11-.57.21-.84.3.24-.04.48-.09.72-.13,1.2-.22,2.33-.43,3.37-.62.52-.1,1.02-.19,1.5-.27.47-.1.93-.19,1.36-.28.55-.12,1.06-.22,1.54-.32,3.09-.89,5.9-1.93,8.4-2.99.8-.36,1.58-.7,2.33-1.04.73-.37,1.44-.73,2.12-1.07.34-.17.67-.34,1-.51.32-.17.63-.36.93-.53.61-.35,1.18-.68,1.73-.99,2.16-1.32,3.82-2.41,4.91-3.22,1.1-.79,1.69-1.22,1.69-1.22,0,0-.58.43-1.66,1.25-1.07.84-2.71,1.96-4.85,3.33-.54.33-1.12.67-1.72,1.03-.3.18-.6.37-.93.55-.32.17-.65.35-.99.53-.68.36-1.38.73-2.11,1.12-.75.35-1.52.71-2.32,1.09-1.37.62-2.84,1.22-4.4,1.81.87-.27,1.75-.57,2.65-.88,1.07-.35,2.13-.77,3.2-1.17,1.07-.4,2.12-.86,3.16-1.28,1.03-.46,2.04-.91,3.01-1.36.95-.49,1.88-.94,2.75-1.41.85-.49,1.66-.95,2.4-1.38.71-.47,1.37-.91,1.95-1.29.59-.37,1.05-.78,1.45-1.07.79-.62,1.24-.97,1.24-.97,0,0-.45.35-1.24.97-.4.3-.85.71-1.44,1.08-.58.39-1.23.82-1.95,1.3-.74.43-1.55.9-2.4,1.39-.87.46-1.79.92-2.75,1.42-.97.45-1.98.91-3,1.38-1.04.42-2.09.88-3.16,1.29-1.07.4-2.13.82-3.2,1.18-1.06.37-2.11.73-3.13,1.05-.47.15-.93.3-1.39.44-1.56.54-3.2,1.05-4.93,1.51-.47.13-.94.25-1.42.37.94-.16,2.15-.4,3.56-.68.84-.19,1.75-.37,2.7-.59.96-.22,1.97-.45,3-.73,1.04-.26,2.11-.55,3.19-.86,1.09-.29,2.17-.65,3.26-.99,1.09-.34,2.16-.74,3.23-1.1,1.05-.4,2.08-.8,3.08-1.2.98-.44,1.93-.84,2.82-1.25.88-.44,1.71-.86,2.47-1.25.74-.43,1.42-.83,2.02-1.18.61-.33,1.09-.72,1.5-.99.82-.57,1.29-.9,1.29-.9,0,0-.47.33-1.29.9-.42.28-.89.66-1.5,1-.6.35-1.28.75-2.02,1.19-.76.39-1.59.81-2.47,1.25-.89.42-1.84.82-2.82,1.26-.99.4-2.03.8-3.08,1.21-1.06.36-2.14.77-3.23,1.11-1.09.34-2.18.7-3.26,1-1.08.31-2.15.61-3.19.87-1.04.28-2.04.51-3,.74-.96.23-1.87.41-2.7.6-1.68.35-3.08.62-4.07.78-.52.09-.92.16-1.18.2-2.14.48-4.39.89-6.71,1.21h0c-1.03.22-2.09.45-3.19.69-2.96.56-6.17,1.23-9.59,1.77-.85.14-1.72.29-2.6.43-.88.15-1.77.26-2.67.39-1.8.25-3.64.54-5.52.75-3.75.47-7.64.87-11.61,1.19-1.98.14-3.98.32-5.99.41-2.01.11-4.03.23-6.05.27l-3.03.1c-1.01.01-2.02.03-3.03.04-2.02.04-4.02.01-6.02,0-1.99,0-3.97-.09-5.93-.13-1.95-.09-3.88-.15-5.78-.27-1.9-.11-3.77-.23-5.59-.39-1.83-.13-3.61-.32-5.35-.48-3.47-.36-6.76-.76-9.78-1.21-3.02-.43-5.79-.9-8.24-1.36Z"/>
    <path class="cls-1" d="M498.33,301.44s-20.04-6.71-27.24-14.44c-7.21-7.73-21.14-2.08-6.33,5.1,14.81,7.18,33.57,9.34,33.57,9.34Z"/>
  </g>
  <path class="cls-1" d="M330.96,227c-2.15,9.01-15.08,29.56-15.08,29.56-1.76,11.75-24.08,31.33-24.08,31.33-1.57,6.85-13.71,11.75-13.71,11.75-.98,4.31-6.66,6.66-6.66,6.66-.98,2.55-3.47,3.51-3.47,3.51-2.21,6.52-8.48,16.03-16.32,26.39.5,8.51-.2,19.69-3.44,34.06l-.32,4.32s-.95-.13-2.52-.68c-.26-1.54-.39-2.59-.39-2.59,0,0-.07.98-.11,2.41-3.36-1.28-9.02-4.35-14.26-11.48-9.32,11.03-18.12,21.05-23.37,27.49-14.21,17.4-10.92,40.82-10.92,40.82,1.03,8.42,34.35,26.79,34.35,26.79l-3.95,1.54s-6.87,4.12-8.41,4.64c-1.55.52-6.7,1.37-6.7,1.37,3.76,2.47,10.54,3.29,15.09,3.56,0-.08,0-.11,0-.11,0,0,2.97-.99,6.09-1.32,3.13-.33,17.13-16.15,29.82-24.38,12.68-8.24,22.9-22.9,22.9-22.9l.82,3.3s.88,1.15,2.13,3.3c-1.11,1.63-1.98,2.77-1.98,2.77,0,0,1.01-.89,2.32-2.18,4.12,7.29,11.49,24.21,6.59,45.85,0,0-2.64,11.53.82,18.29,2.98,5.82,7.31,21.07,8.45,39.41-1.24.11-2.05.15-2.05.15,0,0,.83.13,2.08.26.07,1.12.12,2.25.16,3.4-2.35.27-4.17.36-4.17.36,0,0,1.86.28,4.2.45.03,1.12.06,2.25.06,3.38-2.31.27-4.1.36-4.1.36,0,0,1.81.27,4.11.44,0,.08,0,.15,0,.22l2.47,4.45s-23.39,1.65-46.62-13.34c0,0-16.15-8.9-22.41-10.38-3.96-.94-6-1.28-7.97-2.37-1.19-.25-2.41-.52-3.67-.81-10.38-2.38-20.23-5.17-29.49-8.39l-2.52,3.49-1.48-.33.49,1.48-3.46,3.3-1.48-.83.17,1.65c-2.14,2.8-8.07,5.6-8.07,5.6-10.16-7.65-15.46-22.14-17.61-29.52-35.6-20.25-57.95-49.99-63.85-90.62-4.85,5.61-5.19,7.31-5.9,7.88-.8.64-1.13-.16-1.13-.16-.3-.46-.6-.92-.89-1.38,1.13-1.77,2.04-3.03,2.04-3.03,0,0-1.08,1-2.43,2.41-.51-.8-1-1.59-1.49-2.36,1.1-1.73,1.99-2.95,1.99-2.95,0,0-1.04.96-2.36,2.34-8.91-14.42-13.64-25.45-16.03-33.7.42-.62.69-.99.69-.99,0,0-.29.27-.76.73-.25-.87-.47-1.7-.67-2.5.66-.98,1.11-1.6,1.11-1.6,0,0-.48.45-1.21,1.17-3.07-12.92.07-17.84.07-17.84,20.12-35.7,38.57-46.27,44.95-49.02,26.28-48.89,72.4-79.27,94.02-88.96,0,0,25.3-11.05,46.74-15.44,21.44-4.39,50.83-9.31,62.29-4.48,11.46,4.82,5.43,8.75,5.43,8.75-.21.14-.41.29-.61.44l.25.75s-.28-.18-.69-.39c-1.59,1.31-2.9,2.9-3.97,4.6l.32.98s-.28-.18-.68-.39c-.29.5-.57,1-.83,1.51l.42,1.3s-.34-.21-.83-.46c-2.96,6.36-3.34,13.09-3.34,13.09,5.28-3.42,8.46-9.21,10.19-13.4-.23-.43-.41-.72-.41-.72l.62.2c.11-.26.2-.52.3-.77-.24-.45-.43-.76-.43-.76l.63.2c.07-.2.14-.39.2-.58-.26-.49-.47-.84-.47-.84l.68.22c.11-.35.21-.66.29-.93-.36-.36-.64-.6-.64-.6h.8c.09-.32.13-.51.13-.51-1.76-5.29,2.15-6.85,2.15-6.85,7.44-3.92,3.13,20.17.98,29.17ZM260.76,218.37c-3.31,0-6,2.69-6,6s2.69,6,6,6,6-2.69,6-6-2.69-6-6-6Z"/>
  <g>
    <path class="cls-1" d="M370.37,436.72h6.98v2.46h-9.7v-16.12h2.72v13.66Z"/>
    <path class="cls-1" d="M380,422.27c.29-.3.66-.45,1.11-.45s.81.15,1.11.45c.29.3.44.69.44,1.16s-.15.84-.44,1.14c-.29.3-.66.45-1.11.45s-.81-.15-1.11-.45-.44-.68-.44-1.14.15-.86.44-1.16ZM382.41,439.19h-2.63v-12.25h2.63v12.25Z"/>
    <path class="cls-1" d="M391.88,439.19h-2.74l-4.75-12.25h2.76l3.41,9.65,3.36-9.65h2.65l-4.7,12.25Z"/>
    <path class="cls-1" d="M403.01,426.84c2.1,0,3.63.63,4.57,1.9.94,1.27,1.33,3.04,1.16,5.33h-9.26c.21.95.66,1.7,1.34,2.25.68.55,1.5.82,2.46.82,1.38,0,2.53-.48,3.46-1.43l1.41,1.5c-1.26,1.38-2.95,2.07-5.07,2.07-1.89,0-3.41-.57-4.55-1.72-1.14-1.14-1.72-2.64-1.72-4.48s.58-3.34,1.73-4.49,2.64-1.74,4.47-1.75ZM399.44,432.14h7c-.05-.98-.38-1.76-.99-2.33-.61-.57-1.42-.85-2.42-.85s-1.77.28-2.41.85c-.64.57-1.03,1.34-1.19,2.33Z"/>
    <path class="cls-1" d="M424.8,439.19v-1.5c-.88,1.08-2.23,1.61-4.05,1.61-1.31,0-2.35-.36-3.13-1.07s-1.17-1.62-1.17-2.73.41-2.01,1.22-2.67c.81-.66,1.95-1,3.41-1.01h3.71v-.37c0-.78-.25-1.39-.75-1.82-.5-.43-1.23-.65-2.18-.65-1.18,0-2.39.42-3.62,1.24l-1.08-1.84c.94-.55,1.78-.95,2.52-1.19.75-.24,1.66-.36,2.75-.36,1.57,0,2.78.38,3.64,1.14.86.76,1.3,1.82,1.31,3.17l.02,8.04h-2.6ZM421.3,437.2c.94,0,1.73-.22,2.38-.66.65-.44,1.02-.99,1.09-1.67v-1.13h-3.32c-.88,0-1.52.13-1.92.38-.41.25-.61.67-.61,1.26,0,.55.21.99.63,1.32.42.33,1,.5,1.74.5Z"/>
    <path class="cls-1" d="M438.11,426.84c1.43,0,2.55.42,3.35,1.25.81.84,1.21,1.99,1.21,3.47v7.62h-2.65v-6.89c0-.92-.26-1.65-.78-2.18-.52-.53-1.24-.79-2.17-.79-.98.02-1.79.33-2.41.94-.62.61-.98,1.41-1.07,2.4v6.52h-2.65v-12.25h2.65v2.35c.83-1.63,2.33-2.44,4.51-2.44Z"/>
    <path class="cls-1" d="M457.9,422.09v17.09h-2.65v-2.1c-.91,1.47-2.34,2.21-4.31,2.21-1.75,0-3.17-.58-4.25-1.74-1.08-1.16-1.62-2.68-1.62-4.55s.54-3.34,1.61-4.48c1.07-1.14,2.48-1.72,4.22-1.72,1.96,0,3.42.75,4.35,2.23v-6.96h2.65ZM448.79,435.97c.7.75,1.6,1.12,2.71,1.12s2.01-.37,2.71-1.12c.7-.74,1.05-1.7,1.05-2.87s-.35-2.15-1.05-2.9c-.7-.75-1.6-1.13-2.71-1.13s-2.01.38-2.71,1.13c-.7.75-1.06,1.72-1.07,2.9.02,1.17.37,2.12,1.07,2.87Z"/>
    <path class="cls-1" d="M472.92,426.84c2.1,0,3.63.63,4.57,1.9.94,1.27,1.33,3.04,1.16,5.33h-9.26c.21.95.66,1.7,1.34,2.25.68.55,1.5.82,2.46.82,1.38,0,2.53-.48,3.46-1.43l1.41,1.5c-1.26,1.38-2.95,2.07-5.07,2.07-1.89,0-3.41-.57-4.55-1.72-1.14-1.14-1.72-2.64-1.72-4.48s.58-3.34,1.73-4.49,2.64-1.74,4.47-1.75ZM469.35,432.14h7c-.05-.98-.38-1.76-.99-2.33-.61-.57-1.42-.85-2.42-.85s-1.77.28-2.41.85c-.64.57-1.03,1.34-1.19,2.33Z"/>
    <path class="cls-1" d="M488.59,426.84c1.43,0,2.55.42,3.35,1.25.81.84,1.21,1.99,1.21,3.47v7.62h-2.65v-6.89c0-.92-.26-1.65-.78-2.18-.52-.53-1.24-.79-2.17-.79-.98.02-1.79.33-2.41.94-.62.61-.98,1.41-1.07,2.4v6.52h-2.65v-12.25h2.65v2.35c.83-1.63,2.33-2.44,4.51-2.44Z"/>
    <path class="cls-1" d="M499.3,426.93v12.6c0,1.37-.39,2.42-1.17,3.14-.78.73-1.71,1.09-2.79,1.09-.95,0-1.8-.28-2.56-.83l.88-2.05c.52.37,1.04.55,1.57.55.43,0,.78-.14,1.05-.42.27-.28.4-.69.4-1.24v-12.85h2.63ZM497.98,421.82c.48,0,.87.15,1.17.45.31.3.46.69.46,1.16s-.15.84-.46,1.15c-.31.31-.7.46-1.17.46s-.84-.15-1.15-.46c-.31-.31-.46-.69-.46-1.15s.15-.86.46-1.16c.31-.3.69-.45,1.15-.45Z"/>
    <path class="cls-1" d="M508.56,426.84c1.89,0,3.42.57,4.61,1.72,1.18,1.14,1.77,2.65,1.77,4.5s-.59,3.34-1.77,4.49c-1.18,1.15-2.72,1.73-4.61,1.73s-3.45-.58-4.63-1.73c-1.18-1.15-1.77-2.65-1.77-4.49s.59-3.36,1.77-4.5c1.18-1.14,2.73-1.72,4.63-1.72ZM508.56,429.12c-1.11,0-2.01.37-2.71,1.11-.7.74-1.05,1.69-1.05,2.86s.35,2.14,1.05,2.88c.7.74,1.6,1.11,2.71,1.11s2-.37,2.7-1.11c.69-.74,1.04-1.7,1.04-2.88s-.35-2.12-1.05-2.86c-.7-.74-1.59-1.11-2.68-1.11Z"/>
    <path class="cls-1" d="M527.63,426.93l-5.57,13.94c-.75,1.93-2.08,2.9-3.99,2.9-1.06,0-2-.35-2.83-1.04l1.13-2.05c.55.4,1.08.6,1.59.6.83,0,1.45-.45,1.87-1.36l.42-.92-5.07-12.07h2.74l3.66,9.28,3.41-9.28h2.65Z"/>
    <path class="cls-1" d="M546.38,425.5h-8.08v4.65h7.33v2.42h-7.33v6.61h-2.72v-16.12h10.83l-.02,2.44Z"/>
    <path class="cls-1" d="M551.43,439.19h-2.65v-17.09h2.65v17.09Z"/>
    <path class="cls-1" d="M565.85,426.93l-5.57,13.94c-.75,1.93-2.08,2.9-3.99,2.9-1.06,0-2-.35-2.83-1.04l1.13-2.05c.55.4,1.08.6,1.59.6.83,0,1.45-.45,1.87-1.36l.42-.92-5.07-12.07h2.74l3.66,9.28,3.41-9.28h2.65Z"/>
    <path class="cls-1" d="M584.6,425.5h-8.08v4.65h7.33v2.42h-7.33v6.61h-2.72v-16.12h10.83l-.02,2.44Z"/>
    <path class="cls-1" d="M587.09,422.27c.29-.3.66-.45,1.11-.45s.81.15,1.11.45c.29.3.44.69.44,1.16s-.15.84-.44,1.14c-.29.3-.66.45-1.11.45s-.81-.15-1.11-.45-.44-.68-.44-1.14.15-.86.44-1.16ZM589.5,439.19h-2.63v-12.25h2.63v12.25Z"/>
    <path class="cls-1" d="M597.08,426.82c1.69,0,3.12.42,4.28,1.24l-.97,1.96c-1.17-.72-2.34-1.08-3.52-1.08s-1.8.41-1.8,1.22c0,.4.22.73.67.99.45.26.99.48,1.62.66.64.18,1.28.38,1.91.62.64.24,1.18.63,1.62,1.16.45.54.67,1.22.67,2.05,0,1.18-.45,2.08-1.35,2.71s-2.02.93-3.35.93c-.92,0-1.82-.15-2.71-.45-.88-.3-1.62-.72-2.22-1.25l.94-1.89c.52.46,1.16.83,1.92,1.11.76.28,1.49.41,2.18.41.6,0,1.08-.11,1.45-.32.37-.21.55-.54.55-.99s-.22-.83-.67-1.11-.98-.5-1.61-.67-1.26-.37-1.89-.6-1.16-.61-1.6-1.14c-.44-.53-.66-1.2-.66-2.02,0-1.17.43-2.05,1.3-2.65.87-.6,1.94-.9,3.21-.9Z"/>
    <path class="cls-1" d="M611.55,426.84c1.43,0,2.54.42,3.35,1.25.81.84,1.21,1.99,1.21,3.47v7.62h-2.65v-6.89c0-.92-.26-1.65-.78-2.18-.52-.53-1.24-.79-2.17-.79-1.08.02-1.93.38-2.56,1.09-.63.71-.94,1.62-.94,2.73v6.04h-2.65v-17.09h2.65v7.23c.84-1.66,2.36-2.49,4.54-2.49Z"/>
    <path class="cls-1" d="M619.86,422.27c.29-.3.66-.45,1.11-.45s.81.15,1.11.45c.29.3.44.69.44,1.16s-.15.84-.44,1.14c-.29.3-.66.45-1.11.45s-.81-.15-1.11-.45-.44-.68-.44-1.14.15-.86.44-1.16ZM622.28,439.19h-2.63v-12.25h2.63v12.25Z"/>
    <path class="cls-1" d="M633.36,426.84c1.43,0,2.55.42,3.35,1.25.81.84,1.21,1.99,1.21,3.47v7.62h-2.65v-6.89c0-.92-.26-1.65-.78-2.18-.52-.53-1.24-.79-2.17-.79-.98.02-1.79.33-2.41.94-.62.61-.98,1.41-1.07,2.4v6.52h-2.65v-12.25h2.65v2.35c.83-1.63,2.33-2.44,4.51-2.44Z"/>
    <path class="cls-1" d="M652.53,426.93v11.06c0,1.75-.58,3.14-1.73,4.18-1.15,1.04-2.69,1.55-4.63,1.55-1.81,0-3.51-.54-5.09-1.61l1.13-1.91c1.2.89,2.48,1.34,3.85,1.34,1.17,0,2.1-.31,2.8-.94s1.05-1.47,1.05-2.53v-1.54c-.86,1.38-2.21,2.07-4.05,2.07-1.66,0-3-.54-4.01-1.64-1.01-1.09-1.52-2.52-1.52-4.29s.5-3.14,1.5-4.2c1-1.07,2.31-1.61,3.94-1.62,1.87-.02,3.26.68,4.15,2.07v-1.98h2.63ZM646.38,436.51c1.03,0,1.87-.35,2.53-1.06s.99-1.61.99-2.72-.33-2.01-.98-2.71c-.65-.7-1.5-1.05-2.55-1.05s-1.9.35-2.56,1.05c-.66.7-1,1.6-1.01,2.71.02,1.11.35,2.01,1,2.72s1.51,1.06,2.57,1.06Z"/>
  </g>
</svg>