<?xml version="1.0" encoding="UTF-8"?>
<svg id="Capa_1" xmlns="http://www.w3.org/2000/svg" version="1.1" viewBox="0 0 674 407.4">
  <!-- Generator: Adobe Illustrator 30.5.1, SVG Export Plug-In . SVG Version: 2.1.4 Build 3)  -->
  <defs>
    <style>
      .st0 {
        fill: #fff;
      }
    </style>
  </defs>
  <g>
    <path class="st0" d="M259.4,211.3v8.5h16.7v11.7h-16.7v19.5h-13.8v-52.8h34.1v13.1h-20.3Z"/>
    <path class="st0" d="M319.7,237.8v13.1h-34.1v-52.6h14v39.5h20.1Z"/>
    <path class="st0" d="M328.2,228.2l-16.2-29.9h15.8l7.3,15.2,7.3-15.2h15.9l-16.2,29.9v22.7h-13.9v-22.7Z"/>
    <path class="st0" d="M397.7,211.3v8.5h16.7v11.7h-16.7v19.5h-13.8v-52.8h34.1v13.1h-20.3Z"/>
    <path class="st0" d="M423.9,198.3h14v52.6h-14v-52.6Z"/>
    <path class="st0" d="M444.3,242l8.4-8.3c2.2,3.2,6.3,5.2,10.7,5.2s5.9-1.1,5.9-3.2-5.4-5.1-10.5-7.4c-6.7-2.9-12.4-7.2-12.4-15.2s8.6-15.6,18.6-15.6,14.3,3.8,16.3,9l-8.1,7.8c-1.6-2.8-5.6-4-8.1-4s-4.9,1.5-4.9,3.3,3.7,3.2,9.4,5.6c8.2,3.5,13.7,8.5,13.7,16.2s-9.3,16.2-19.9,16.2-16.5-3.8-19.1-9.6Z"/>
    <path class="st0" d="M533.2,198.3v52.6h-13.9v-19.8h-15.6v19.8h-14v-52.6h14v19.7h15.6v-19.7h13.9Z"/>
    <path class="st0" d="M542.3,198.3h14v52.6h-14v-52.6Z"/>
    <path class="st0" d="M610.8,198.2v53.2h-4.4l-27-26.2v25.7h-14v-53.1h4.5l26.9,26.1v-25.6h14Z"/>
    <path class="st0" d="M674,225.8c0,16-12.1,26.3-27,26.3s-29.3-12.5-29.3-27.5,12.7-27.6,29-27.6c6.7,0,14.4,2.9,18.8,6.9l-7.7,10.6c-2.9-2.7-7.1-4.5-11-4.5-7.8,0-14.7,6.4-14.7,14.5s5.9,14.5,15.6,14.5,10.9-3.1,11.1-8.1h-12v-10.4h27c.3,1.8.4,3.5.4,5.1Z"/>
  </g>
  <g>
    <path class="st0" d="M245.6,159.9c0-14.2,11.8-26,26-26,6.5,0,12.8,3,17.4,7.7l-3.3,4.5c-3.6-3.7-8.7-6.3-14.3-6.3-10.2,0-20,8.8-20,20.2s9.7,20.2,20.1,20.2,10.6-2.7,14.2-6.3l3.3,4.6c-4.2,4.2-9.9,7.4-17.4,7.4-14.1,0-26-11.6-26-25.9Z"/>
    <path class="st0" d="M332.9,134.6v50.6h-5.7v-22.5h-25.6v22.5h-5.7v-50.6h5.7v22.4h25.6v-22.4h5.7Z"/>
    <path class="st0" d="M343.6,134.6h5.7v50.6h-5.7v-50.6Z"/>
    <path class="st0" d="M390.5,179.5v5.7h-30.5v-50.6h5.7v44.9h24.8Z"/>
    <path class="st0" d="M403.1,140.2v16h20.8v5.7h-20.8v17.6h24v5.7h-29.7v-50.6h29.7v5.6h-24Z"/>
  </g>
  <g>
    <path class="st0" d="M524.7,91.2c4.7-18.3,6.2-41.4,1.8-70.6h0c0,0,14.8-11.7,12.7,3.4-1.5,10.7-8,43.4-14.5,67.2,0,0,0,0,0,0Z"/>
    <path class="st0" d="M512.1,132.3c8.4,1.5,16.6,3.6,24.5,7,9.9,4.2,18.4,10.1,24.5,19.1,2.7,3.9,4.6,8.1,4.7,12.9.2,5.3-1.5,9.8-6.3,12.6-4.7,2.8-8.9,1.3-13.9-.6-3.6-1.4-6.4-3-9.6-4.5-1.6-.7-5.4-3-7-3.8,0,0,0,0,0,0,.6.2,1.3.4,1.9.7,1.4.5,2.8.9,4.1,1.4,1.7.6,3.4,1.2,5.1,1.8,1.7.6,3.3,1.1,5,1.7,1.5.5,2.9,1,4.4,1.5,1.2.4,2.7.7,4,.7,2,0,3.9-.8,5.4-2,1.4-1.1,2.5-2.8,3.1-4.6,1.2-3.8.6-7.4-.9-10.9-2.7-6.5-7.3-11.5-12.8-15.7-7.3-5.5-15.6-8.8-24.3-11.3-2.9-.8-5.9-1.6-8.8-2.2l-14.9-5.7c3.9.6,7.8,1.2,11.7,1.9Z"/>
    <path class="st0" d="M512.8,7.9c2.3-1.2,4.6-1.3,6.8-.3l-.7,1.5c-1.7-.8-3.4-.7-5.3.2-19.2,9.8-38.1,104.5-38.3,105.5l-1.7-.3c.8-3.9,19.2-96.5,39.2-106.6Z"/>
    <path class="st0" d="M516.3,97.6c8.1-13.5,15.8-37.7,6.7-76.7l.8-.2c4.1,17.3,5.2,33.3,3.3,47.3-1.5,11.3-4.9,21.4-10.1,30.1-8.9,14.8-20.2,20.3-20.3,20.4l-.4-.8c.1,0,11.2-5.5,19.9-20.1Z"/>
    <g>
      <path class="st0" d="M478.3,108.6c.2-.8,20.9-84.4,29.7-92.4l-.3-.3c-8.8,8.1-28.9,89.1-29.8,92.6h.4Z"/>
      <path class="st0" d="M488.6,80.7c.2-.7,18.5-66.3,25.1-69.1l-.2-.4c-6.8,2.9-24.6,66.6-25.4,69.3h.4Z"/>
      <path class="st0" d="M496.2,65.3c.2-.4,18.1-39.7,26.4-42.3v-.4c-8.6,2.6-26.1,40.9-26.8,42.5l.4.2Z"/>
      <path class="st0" d="M502.2,44.1c.1-.2,11.7-24.5,17.7-26v-.4c-6.3,1.5-17.6,25.2-18.1,26.2l.4.2Z"/>
      <path class="st0" d="M506.4,30.9c0-.1,5.3-13.3,11.4-18.6l-.3-.3c-6.1,5.4-11.4,18.6-11.5,18.8l.4.2Z"/>
      <rect class="st0" x="499" y="50.5" width=".2" height="4.9" transform="translate(220.1 470.1) rotate(-62.3)"/>
      <rect class="st0" x="500.5" y="46.6" width=".2" height="5.5" transform="translate(231.4 474.4) rotate(-63.3)"/>
      <rect class="st0" x="501.7" y="39.4" width=".4" height="2.7" transform="translate(276.1 490.9) rotate(-68)"/>
      <rect class="st0" x="504.6" y="23.4" width=".2" height="2.9" transform="translate(276.1 475.5) rotate(-65.9)"/>
      <rect class="st0" x="512" y="27.8" width=".2" height="4.7" transform="translate(227.9 457.3) rotate(-59.7)"/>
      <rect class="st0" x="518.1" y="19.6" width=".2" height="5.5" transform="translate(169.9 406.7) rotate(-50.3)"/>
      <rect class="st0" x="497.2" y="43.8" width=".2" height="3.3" transform="translate(278.4 494.3) rotate(-69.2)"/>
      <rect class="st0" x="507.2" y="17.5" width=".2" height="2.8" transform="translate(344.6 499.8) rotate(-73.4)"/>
      <rect class="st0" x="510" y="24.6" width=".4" height="2.9" transform="translate(272.8 478.5) rotate(-65.2)"/>
      <rect class="st0" x="512.7" y="19.8" width=".2" height="3.7" transform="translate(191.9 422.2) rotate(-53.7)"/>
      <rect class="st0" x="486.1" y="77.2" width="3.3" height=".4" transform="translate(-6.1 77.8) rotate(-9.1)"/>
    </g>
    <polygon class="st0" points="471.1 127.5 471.1 127.6 471.1 127.6 495.1 151.2 472.1 129.4 480.1 144.5 472.3 130.9 481.5 153.1 470.8 128.8 470.8 140.6 470 127.3 471.1 127.5"/>
    <path class="st0" d="M445.3,78.2l26.2,35.7h2c0,0,2.7-34.4,2.7-34.4l-3.9,30.1c-.1-.6-.3-1.1-.5-1.8,0-.2-.1-.5-.2-.7l-7.3-53.1,6.1,48.6c-.3-1.2-.7-2.5-1-3.9-.9-3.3-1.9-6.9-2.8-10.4-1-3.5-2-7.1-2.9-10.4-.9-3.3-1.8-6.4-2.6-9-.8-2.6-1.4-4.8-1.9-6.4-.5-1.5-.7-2.4-.7-2.4,0,0,.2.9.6,2.4.4,1.6,1,3.8,1.7,6.4.7,2.7,1.5,5.8,2.4,9.1.9,3.3,1.9,6.9,2.8,10.4,1,3.5,2,7.1,2.9,10.4.6,2.1,1.2,4.1,1.7,6l.2,1.7-17.7-49.7,17.6,54.4c-5.6-7.6-25.5-33.1-25.5-33.1ZM471.9,109.1c.1.4.2.7.3,1.1h0c0,0-.2-.6-.2-.6v-.5Z"/>
    <polygon class="st0" points="526.6 93.1 506.7 117.6 521 108.5 508.1 117.3 529.6 106.5 506.1 118.9 517.9 118.1 504.6 119.9 505.2 118.4 526.6 93.1"/>
    <path class="st0" d="M487.3,106.5c.3-.7,25.9-70.1,35.4-75.4l-.2-.4c-9.6,5.4-34.5,72.8-35.6,75.7l.5.2Z"/>
    <path class="st0" d="M498.8,84.6c6.8-29.4,26-44.3,26.2-44.4l-.3-.4c-.2.1-19.5,15.1-26.3,44.7h.5Z"/>
    <path class="st0" d="M493.3,111.3h.5c0-.7,1.8-14.3,6.9-28.7,4.5-12.8,12.5-28.6,25.1-31.5v-.5c-12.9,2.9-21,18.9-25.5,31.8-5.1,14.4-6.9,28.1-6.9,28.9Z"/>
    <path class="st0" d="M496.8,112.8c0-.1.7-11.1,4.6-23.1,3.6-11,10.7-25.1,24.5-29.6l-.2-.5c-13.9,4.6-21.1,18.8-24.8,29.9-3.9,12-4.6,23.1-4.6,23.2h.5Z"/>
    <path class="st0" d="M501.3,97.8c3.4-8.3,10.2-19.2,23.2-24l.2.5c-24.6,9-27.2,40.3-27.2,40.6h-.5c0-.1.6-8.1,4.3-17.1Z"/>
    <path class="st0" d="M499.4,112.9c0-.2,2.7-21.6,21.9-27.1v-.5c-19.6,5.6-22.4,27.3-22.4,27.5h.5Z"/>
    <rect class="st0" x="511.3" y="62.9" width=".5" height="5.7" transform="translate(119.1 400.3) rotate(-47.8)"/>
    <rect class="st0" x="509.6" y="74.9" width=".5" height="7.6" transform="translate(84.5 370.6) rotate(-43.2)"/>
    <rect class="st0" x="502.9" y="88" width=".5" height="4.1" transform="translate(234.5 524.9) rotate(-68.4)"/>
    <path class="st0" d="M493.1,90.8"/>
    <rect class="st0" x="495" y="89.1" width=".5" height="4.7" transform="translate(360.6 576.8) rotate(-85)"/>
    <rect class="st0" x="511.5" y="83.5" width=".5" height="6.1" transform="translate(60.9 343.6) rotate(-39.3)"/>
    <rect class="st0" x="518.2" y="64.9" width=".2" height="11.4" transform="translate(14.5 211.4) rotate(-23.4)"/>
    <rect class="st0" x="498.7" y="77.9" width=".5" height="2.1" transform="translate(293 540.2) rotate(-74.9)"/>
    <rect class="st0" x="501.8" y="98.8" width=".5" height="2.6" transform="translate(161.5 482.3) rotate(-59.6)"/>
    <rect class="st0" x="495.9" y="103.3" width=".5" height="3" transform="translate(290.1 568.2) rotate(-78)"/>
    <rect class="st0" x="516.9" y="78.5" width=".2" height="8.2" transform="translate(-.9 159.4) rotate(-17.5)"/>
    <rect class="st0" x="497.6" y="95" width=".5" height="2.7" transform="translate(278.1 553.3) rotate(-75.3)"/>
    <path class="st0" d="M484.5,109.8c0-.3,7.1-28.6,16-48.5l-.4-.2c-9,19.9-16,48.3-16,48.5h.5Z"/>
    <polygon class="st0" points="494.8 86.5 494.9 86.3 491.5 84.7 491.4 85 494.8 86.5"/>
    <rect class="st0" x="482.5" y="100.7" width=".2" height="6.1" transform="translate(254.5 541.5) rotate(-74.6)"/>
    <polygon class="st0" points="489.5 100.2 489.5 100 487 99.3 487 99.6 489.5 100.2"/>
    <rect class="st0" x="497.7" y="62.8" width=".5" height="2.1" transform="translate(157.2 432.6) rotate(-54.6)"/>
    <rect class="st0" x="517.9" y="38.8" width=".5" height="6.2" transform="translate(168.2 426.3) rotate(-52.3)"/>
    <rect class="st0" x="515.6" y="50.7" width=".2" height="4.9" transform="translate(125.9 394.9) rotate(-47.1)"/>
    <rect class="st0" x="509.4" y="41.7" width=".5" height="6.1" transform="translate(269.2 496.4) rotate(-67)"/>
    <rect class="st0" x="504.7" y="50.9" width=".5" height="6.4" transform="translate(220.5 474.8) rotate(-62)"/>
    <rect class="st0" x="510.7" y="51.2" width=".5" height="3.3" transform="translate(264.8 503.7) rotate(-67.3)"/>
    <rect class="st0" x="516.1" y="57.1" width=".5" height="7.2" transform="translate(100.4 372.7) rotate(-43.6)"/>
    <rect class="st0" x="500.3" y="85" width=".5" height="3.1" transform="translate(249.1 527.9) rotate(-70.1)"/>
    <rect class="st0" x="492.9" y="95.3" width=".5" height="5.5" transform="translate(320.3 570.2) rotate(-81.1)"/>
    <rect class="st0" x="485.5" y="89" width=".5" height="6.5" transform="translate(318.8 557.6) rotate(-81)"/>
    <rect class="st0" x="488.3" y="79.1" width=".5" height="6.8" transform="translate(258.4 521.4) rotate(-71.9)"/>
    <rect class="st0" x="493" y="70.4" width=".5" height="4.5" transform="translate(251.7 508.8) rotate(-69.4)"/>
    <path class="st0" d="M502.3,111.8c0-.1,2-11.8,13-17.2.6-.3,1.2-.6,1.8-.8l-.2-.5c-.6.2-1.3.5-1.9.8-11.3,5.5-13.2,17.4-13.3,17.5h.5Z"/>
    <rect class="st0" x="513.2" y="89.6" width=".5" height="5.4" transform="translate(56.2 343.5) rotate(-39)"/>
    <rect class="st0" x="507.8" y="94.9" width=".5" height="4.3" transform="translate(81.8 390) rotate(-45.3)"/>
    <rect class="st0" x="507.5" y="88.5" width=".5" height="4.6" transform="translate(121.1 432.2) rotate(-51.6)"/>
    <rect class="st0" x="506.4" y="103.8" width=".5" height="5.3" transform="translate(247.1 554.4) rotate(-71.8)"/>
    <rect class="st0" x="501" y="108.1" width=".5" height="2.7" transform="translate(271.8 568.3) rotate(-75.8)"/>
    <rect class="st0" x="512.8" y="96" width=".5" height="5.2" transform="translate(134 458.1) rotate(-54.4)"/>
    <rect class="st0" x="512.9" y="70.2" width=".5" height="9.4" transform="translate(26.3 253.6) rotate(-28.5)"/>
    <rect class="st0" x="503" y="78.2" width=".5" height="3.4" transform="translate(240.4 516.4) rotate(-68)"/>
    <rect class="st0" x="506.7" y="70.4" width=".5" height="4.3" transform="translate(203.3 484.8) rotate(-61.8)"/>
    <rect class="st0" x="497.9" y="70.1" width=".5" height="4.5" transform="translate(245.2 507.5) rotate(-68.1)"/>
    <rect class="st0" x="494.4" y="79.4" width=".5" height="4.1" transform="translate(173.4 466.3) rotate(-59.5)"/>
    <path class="st0" d="M509.7,130.8c-2.8-.5-5.3-1-7.3-1.5-2-.5-3.6-.9-4.7-1.1-.6-.2-1-.3-1.3-.4-.3,0-.4-.1-.4-.1h0c1.8-1.4,5.4-4.2,7.5-6.8.3,0,.6.2,1,.3,1.9.5,4.2,1.2,6.9,1.8,2.7.7,5.7,1.4,9.1,2.1,3.4.7,7,1.4,10.9,2,1.9.3,3.9.6,6,.9,2,.3,4.1.6,6.3.8,2.1.3,4.3.5,6.5.7,2.2.2,4.4.4,6.7.5,2.3.1,4.5.3,6.8.4,1.1,0,2.3.1,3.4.2h3.4c2.3.2,4.6.2,6.9.2,2.3,0,4.6,0,6.8,0,4.5,0,9-.3,13.3-.6,2.2-.1,4.3-.3,6.4-.5,1,0,2.1-.2,3.1-.3,1-.1,2-.2,3-.3,4-.4,7.7-.9,11.1-1.4,1.7-.3,3.4-.5,4.9-.8.8-.1,1.5-.2,2.3-.4.2,0,.4,0,.6-.1.5-.2,1.1-.4,1.6-.6.9-.4,1.9-.7,3-1.1,1.1-.4,2.2-.9,3.3-1.3,1.1-.5,2.3-1,3.5-1.5,1.2-.5,2.4-1.1,3.6-1.7,1.2-.6,2.3-1.2,3.5-1.8,1.1-.6,2.2-1.3,3.3-1.9,1-.7,2.1-1.3,3-1.9.9-.7,1.8-1.3,2.6-1.8.8-.6,1.5-1.2,2.1-1.7.6-.5,1.1-1,1.5-1.4.8-.8,1.3-1.2,1.3-1.2,0,0-.5.5-1.3,1.2-.4.4-.9.9-1.5,1.4-.6.5-1.3,1.1-2.1,1.7-.8.6-1.7,1.2-2.6,1.9-.9.6-2,1.3-3,1.9-1.1.6-2.2,1.3-3.3,1.9-1.2.6-2.3,1.2-3.5,1.8-1.2.6-2.4,1.2-3.6,1.7-1.2.5-2.3,1.1-3.5,1.5-1.1.5-2.2.9-3.3,1.4-1.1.4-2.1.8-3,1.2-.3.1-.7.2-1,.4.3,0,.6-.1.8-.1,1.4-.3,2.7-.5,3.9-.7.6-.1,1.2-.2,1.7-.3.5-.1,1.1-.2,1.6-.3.6-.1,1.2-.3,1.8-.4,3.6-1,6.8-2.2,9.7-3.5.9-.4,1.8-.8,2.7-1.2.8-.4,1.7-.8,2.4-1.2.4-.2.8-.4,1.2-.6.4-.2.7-.4,1.1-.6.7-.4,1.4-.8,2-1.1,2.5-1.5,4.4-2.8,5.7-3.7,1.3-.9,1.9-1.4,1.9-1.4,0,0-.7.5-1.9,1.4-1.2,1-3.1,2.3-5.6,3.8-.6.4-1.3.8-2,1.2-.3.2-.7.4-1.1.6-.4.2-.8.4-1.1.6-.8.4-1.6.8-2.4,1.3-.9.4-1.8.8-2.7,1.3-1.6.7-3.3,1.4-5.1,2.1,1-.3,2-.7,3.1-1,1.2-.4,2.5-.9,3.7-1.3,1.2-.5,2.4-1,3.6-1.5,1.2-.5,2.3-1.1,3.5-1.6,1.1-.6,2.2-1.1,3.2-1.6,1-.6,1.9-1.1,2.8-1.6.8-.5,1.6-1,2.3-1.5.7-.4,1.2-.9,1.7-1.2.9-.7,1.4-1.1,1.4-1.1,0,0-.5.4-1.4,1.1-.5.3-1,.8-1.7,1.2-.7.4-1.4.9-2.2,1.5-.9.5-1.8,1-2.8,1.6-1,.5-2.1,1.1-3.2,1.6-1.1.5-2.3,1.1-3.5,1.6-1.2.5-2.4,1-3.6,1.5-1.2.5-2.5,1-3.7,1.4-1.2.4-2.4.8-3.6,1.2-.5.2-1.1.3-1.6.5-1.8.6-3.7,1.2-5.7,1.7-.5.1-1.1.3-1.6.4,1.1-.2,2.5-.5,4.1-.8,1-.2,2-.4,3.1-.7,1.1-.3,2.3-.5,3.5-.8,1.2-.3,2.4-.6,3.7-1,1.3-.3,2.5-.8,3.8-1.1,1.3-.4,2.5-.9,3.7-1.3,1.2-.5,2.4-.9,3.6-1.4,1.1-.5,2.2-1,3.3-1.4,1-.5,2-1,2.9-1.4.9-.5,1.6-1,2.3-1.4.7-.4,1.3-.8,1.7-1.1.9-.7,1.5-1,1.5-1,0,0-.5.4-1.5,1-.5.3-1,.8-1.7,1.2-.7.4-1.5.9-2.3,1.4-.9.4-1.8.9-2.8,1.4-1,.5-2.1,1-3.3,1.5-1.1.5-2.3.9-3.6,1.4-1.2.4-2.5.9-3.7,1.3-1.3.4-2.5.8-3.8,1.2-1.2.4-2.5.7-3.7,1-1.2.3-2.4.6-3.5.9-1.1.3-2.2.5-3.1.7-1.9.4-3.6.7-4.7.9-.6.1-1.1.2-1.4.2-2.5.6-5.1,1-7.7,1.4h0c-1.2.3-2.4.5-3.7.8-3.4.6-7.1,1.4-11.1,2-1,.2-2,.3-3,.5-1,.2-2,.3-3.1.5-2.1.3-4.2.6-6.4.9-4.3.5-8.8,1-13.4,1.4-2.3.2-4.6.4-6.9.5-2.3.1-4.6.3-7,.3h-3.5c-1.2.1-2.3.1-3.5.2-2.3,0-4.6,0-6.9,0-2.3,0-4.6-.1-6.8-.2-2.3-.1-4.5-.2-6.7-.3-2.2-.1-4.3-.3-6.5-.4-2.1-.2-4.2-.4-6.2-.6-4-.4-7.8-.9-11.3-1.4-3.5-.5-6.7-1-9.5-1.6Z"/>
    <path class="st0" d="M493.2,127.5s-23.1-7.7-31.4-16.7c-8.3-8.9-24.4-2.4-7.3,5.9,17.1,8.3,38.7,10.8,38.7,10.8Z"/>
  </g>
  <path class="st0" d="M300,41.6c-2.5,10.4-17.4,34.1-17.4,34.1-2,13.6-27.8,36.2-27.8,36.2-1.8,7.9-15.8,13.6-15.8,13.6-1.1,5-7.7,7.7-7.7,7.7-1.1,2.9-4,4.1-4,4.1-2.6,7.5-9.8,18.5-18.8,30.5.6,9.8-.2,22.7-4,39.3l-.4,5s-1.1-.2-2.9-.8c-.3-1.8-.5-3-.5-3,0,0,0,1.1-.1,2.8-3.9-1.5-10.4-5-16.5-13.3-10.8,12.7-20.9,24.3-27,31.7-16.4,20.1-12.6,47.1-12.6,47.1,1.2,9.7,39.6,30.9,39.6,30.9l-4.6,1.8s-7.9,4.8-9.7,5.4c-1.8.6-7.7,1.6-7.7,1.6,4.3,2.9,12.2,3.8,17.4,4.1,0,0,0-.1,0-.1,0,0,3.4-1.1,7-1.5,3.6-.4,19.8-18.6,34.4-28.1,14.6-9.5,26.4-26.4,26.4-26.4l1,3.8s1,1.3,2.5,3.8c-1.3,1.9-2.3,3.2-2.3,3.2,0,0,1.2-1,2.7-2.5,4.8,8.4,13.3,27.9,7.6,52.9,0,0-3,13.3,1,21.1,3.4,6.7,8.4,24.3,9.7,45.5-1.4.1-2.4.2-2.4.2,0,0,1,.1,2.4.3,0,1.3.1,2.6.2,3.9-2.7.3-4.8.4-4.8.4,0,0,2.1.3,4.8.5,0,1.3,0,2.6,0,3.9-2.7.3-4.7.4-4.7.4,0,0,2.1.3,4.7.5,0,0,0,.2,0,.3l2.9,5.1s-27,1.9-53.8-15.4c0,0-18.6-10.3-25.9-12-4.6-1.1-6.9-1.5-9.2-2.7-1.4-.3-2.8-.6-4.2-.9-12-2.7-23.3-6-34-9.7l-2.9,4-1.7-.4.6,1.7-4,3.8-1.7-1,.2,1.9c-2.5,3.2-9.3,6.5-9.3,6.5-11.7-8.8-17.8-25.6-20.3-34.1-41.1-23.4-66.9-57.7-73.7-104.6-5.6,6.5-6,8.4-6.8,9.1-.9.7-1.3-.2-1.3-.2-.3-.5-.7-1.1-1-1.6,1.3-2,2.4-3.5,2.4-3.5,0,0-1.2,1.2-2.8,2.8-.6-.9-1.2-1.8-1.7-2.7,1.3-2,2.3-3.4,2.3-3.4,0,0-1.2,1.1-2.7,2.7-10.3-16.6-15.7-29.4-18.5-38.9.5-.7.8-1.1.8-1.1,0,0-.3.3-.9.8-.3-1-.5-2-.8-2.9.8-1.1,1.3-1.9,1.3-1.9,0,0-.6.5-1.4,1.4-3.5-14.9,0-20.6,0-20.6,23.2-41.2,44.5-53.4,51.9-56.6,30.3-56.4,83.6-91.5,108.5-102.7,0,0,29.2-12.8,54-17.8,24.7-5.1,58.7-10.7,71.9-5.2,13.2,5.6,6.3,10.1,6.3,10.1-.2.2-.5.3-.7.5l.3.9s-.3-.2-.8-.5c-1.8,1.5-3.3,3.3-4.6,5.3l.4,1.1s-.3-.2-.8-.5c-.3.6-.7,1.2-1,1.7l.5,1.5s-.4-.2-1-.5c-3.4,7.3-3.9,15.1-3.9,15.1,6.1-3.9,9.8-10.6,11.8-15.5-.3-.5-.5-.8-.5-.8l.7.2c.1-.3.2-.6.3-.9-.3-.5-.5-.9-.5-.9l.7.2c0-.2.2-.4.2-.7-.3-.6-.5-1-.5-1l.8.3c.1-.4.2-.8.3-1.1-.4-.4-.7-.7-.7-.7h.9c.1-.4.2-.6.2-.6-2-6.1,2.5-7.9,2.5-7.9,8.6-4.5,3.6,23.3,1.1,33.7ZM219,31.6c-3.8,0-6.9,3.1-6.9,6.9s3.1,6.9,6.9,6.9,6.9-3.1,6.9-6.9-3.1-6.9-6.9-6.9Z"/>
  <g>
    <path class="st0" d="M345.5,283.6h8.1v2.8h-11.2v-18.6h3.1v15.8Z"/>
    <path class="st0" d="M356.6,266.9c.3-.3.8-.5,1.3-.5s.9.2,1.3.5c.3.3.5.8.5,1.3s-.2,1-.5,1.3c-.3.3-.8.5-1.3.5s-.9-.2-1.3-.5-.5-.8-.5-1.3.2-1,.5-1.3ZM359.4,286.5h-3v-14.1h3v14.1Z"/>
    <path class="st0" d="M370.3,286.5h-3.2l-5.5-14.1h3.2l3.9,11.1,3.9-11.1h3.1l-5.4,14.1Z"/>
    <path class="st0" d="M383.1,272.2c2.4,0,4.2.7,5.3,2.2,1.1,1.5,1.5,3.5,1.3,6.2h-10.7c.2,1.1.8,2,1.5,2.6.8.6,1.7.9,2.8.9,1.6,0,2.9-.6,4-1.6l1.6,1.7c-1.5,1.6-3.4,2.4-5.8,2.4s-3.9-.7-5.3-2c-1.3-1.3-2-3-2-5.2s.7-3.9,2-5.2,3-2,5.2-2ZM379,278.3h8.1c0-1.1-.4-2-1.1-2.7-.7-.7-1.6-1-2.8-1s-2,.3-2.8,1c-.7.7-1.2,1.6-1.4,2.7Z"/>
    <path class="st0" d="M408.3,286.5v-1.7c-1,1.2-2.6,1.9-4.7,1.9s-2.7-.4-3.6-1.2-1.4-1.9-1.4-3.2.5-2.3,1.4-3.1c.9-.8,2.3-1.2,3.9-1.2h4.3v-.4c0-.9-.3-1.6-.9-2.1-.6-.5-1.4-.7-2.5-.7s-2.8.5-4.2,1.4l-1.3-2.1c1.1-.6,2.1-1.1,2.9-1.4.9-.3,1.9-.4,3.2-.4,1.8,0,3.2.4,4.2,1.3,1,.9,1.5,2.1,1.5,3.7v9.3s-3,0-3,0ZM404.3,284.2c1.1,0,2-.3,2.8-.8.8-.5,1.2-1.1,1.3-1.9v-1.3h-3.8c-1,0-1.8.1-2.2.4-.5.3-.7.8-.7,1.4s.2,1.1.7,1.5c.5.4,1.2.6,2,.6Z"/>
    <path class="st0" d="M423.7,272.2c1.6,0,2.9.5,3.9,1.4.9,1,1.4,2.3,1.4,4v8.8h-3.1v-7.9c0-1.1-.3-1.9-.9-2.5-.6-.6-1.4-.9-2.5-.9-1.1,0-2.1.4-2.8,1.1-.7.7-1.1,1.6-1.2,2.8v7.5h-3.1v-14.1h3.1v2.7c1-1.9,2.7-2.8,5.2-2.8Z"/>
    <path class="st0" d="M446.5,266.7v19.7h-3.1v-2.4c-1,1.7-2.7,2.6-5,2.6s-3.7-.7-4.9-2c-1.3-1.3-1.9-3.1-1.9-5.3s.6-3.9,1.9-5.2c1.2-1.3,2.9-2,4.9-2s3.9.9,5,2.6v-8h3.1ZM436,282.8c.8.9,1.8,1.3,3.1,1.3s2.3-.4,3.1-1.3c.8-.9,1.2-2,1.2-3.3s-.4-2.5-1.2-3.4c-.8-.9-1.8-1.3-3.1-1.3s-2.3.4-3.1,1.3c-.8.9-1.2,2-1.2,3.4,0,1.3.4,2.5,1.2,3.3Z"/>
    <path class="st0" d="M463.8,272.2c2.4,0,4.2.7,5.3,2.2,1.1,1.5,1.5,3.5,1.3,6.2h-10.7c.2,1.1.8,2,1.5,2.6.8.6,1.7.9,2.8.9,1.6,0,2.9-.6,4-1.6l1.6,1.7c-1.5,1.6-3.4,2.4-5.8,2.4s-3.9-.7-5.3-2c-1.3-1.3-2-3-2-5.2s.7-3.9,2-5.2,3-2,5.2-2ZM459.7,278.3h8.1c0-1.1-.4-2-1.1-2.7-.7-.7-1.6-1-2.8-1s-2,.3-2.8,1c-.7.7-1.2,1.6-1.4,2.7Z"/>
    <path class="st0" d="M481.9,272.2c1.6,0,2.9.5,3.9,1.4.9,1,1.4,2.3,1.4,4v8.8h-3.1v-7.9c0-1.1-.3-1.9-.9-2.5-.6-.6-1.4-.9-2.5-.9-1.1,0-2.1.4-2.8,1.1-.7.7-1.1,1.6-1.2,2.8v7.5h-3.1v-14.1h3.1v2.7c1-1.9,2.7-2.8,5.2-2.8Z"/>
    <path class="st0" d="M494.3,272.3v14.5c0,1.6-.5,2.8-1.4,3.6-.9.8-2,1.3-3.2,1.3s-2.1-.3-3-1l1-2.4c.6.4,1.2.6,1.8.6s.9-.2,1.2-.5c.3-.3.5-.8.5-1.4v-14.8h3ZM492.8,266.4c.5,0,1,.2,1.4.5.4.3.5.8.5,1.3s-.2,1-.5,1.3c-.4.4-.8.5-1.4.5s-1-.2-1.3-.5c-.4-.4-.5-.8-.5-1.3s.2-1,.5-1.3c.4-.3.8-.5,1.3-.5Z"/>
    <path class="st0" d="M505,272.2c2.2,0,4,.7,5.3,2,1.4,1.3,2,3.1,2,5.2s-.7,3.9-2,5.2c-1.4,1.3-3.1,2-5.3,2s-4-.7-5.3-2c-1.4-1.3-2-3.1-2-5.2s.7-3.9,2-5.2c1.4-1.3,3.1-2,5.3-2ZM505,274.8c-1.3,0-2.3.4-3.1,1.3-.8.9-1.2,2-1.2,3.3s.4,2.5,1.2,3.3c.8.8,1.8,1.3,3.1,1.3s2.3-.4,3.1-1.3c.8-.9,1.2-2,1.2-3.3s-.4-2.4-1.2-3.3c-.8-.9-1.8-1.3-3.1-1.3Z"/>
    <path class="st0" d="M527,272.3l-6.4,16.1c-.9,2.2-2.4,3.3-4.6,3.3s-2.3-.4-3.3-1.2l1.3-2.4c.6.5,1.2.7,1.8.7,1,0,1.7-.5,2.2-1.6l.5-1.1-5.9-13.9h3.2l4.2,10.7,3.9-10.7h3.1Z"/>
    <path class="st0" d="M548.6,270.7h-9.3v5.4h8.5v2.8h-8.5v7.6h-3.1v-18.6h12.5v2.8Z"/>
    <path class="st0" d="M554.5,286.5h-3.1v-19.7h3.1v19.7Z"/>
    <path class="st0" d="M571.1,272.3l-6.4,16.1c-.9,2.2-2.4,3.3-4.6,3.3s-2.3-.4-3.3-1.2l1.3-2.4c.6.5,1.2.7,1.8.7,1,0,1.7-.5,2.2-1.6l.5-1.1-5.9-13.9h3.2l4.2,10.7,3.9-10.7h3.1Z"/>
    <path class="st0" d="M592.7,270.7h-9.3v5.4h8.5v2.8h-8.5v7.6h-3.1v-18.6h12.5v2.8Z"/>
    <path class="st0" d="M595.6,266.9c.3-.3.8-.5,1.3-.5s.9.2,1.3.5c.3.3.5.8.5,1.3s-.2,1-.5,1.3c-.3.3-.8.5-1.3.5s-.9-.2-1.3-.5-.5-.8-.5-1.3.2-1,.5-1.3ZM598.4,286.5h-3v-14.1h3v14.1Z"/>
    <path class="st0" d="M607.2,272.2c1.9,0,3.6.5,4.9,1.4l-1.1,2.3c-1.3-.8-2.7-1.3-4.1-1.3s-2.1.5-2.1,1.4.3.8.8,1.1c.5.3,1.1.6,1.9.8.7.2,1.5.4,2.2.7.7.3,1.4.7,1.9,1.3.5.6.8,1.4.8,2.4,0,1.4-.5,2.4-1.6,3.1s-2.3,1.1-3.9,1.1-2.1-.2-3.1-.5c-1-.3-1.9-.8-2.6-1.4l1.1-2.2c.6.5,1.3,1,2.2,1.3.9.3,1.7.5,2.5.5s1.3-.1,1.7-.4c.4-.2.6-.6.6-1.1s-.3-1-.8-1.3-1.1-.6-1.9-.8-1.5-.4-2.2-.7-1.3-.7-1.8-1.3c-.5-.6-.8-1.4-.8-2.3,0-1.3.5-2.4,1.5-3.1,1-.7,2.2-1,3.7-1Z"/>
    <path class="st0" d="M623.9,272.2c1.6,0,2.9.5,3.9,1.4.9,1,1.4,2.3,1.4,4v8.8h-3.1v-7.9c0-1.1-.3-1.9-.9-2.5-.6-.6-1.4-.9-2.5-.9-1.2,0-2.2.4-3,1.3-.7.8-1.1,1.9-1.1,3.2v7h-3.1v-19.7h3.1v8.3c1-1.9,2.7-2.9,5.2-2.9Z"/>
    <path class="st0" d="M633.4,266.9c.3-.3.8-.5,1.3-.5s.9.2,1.3.5c.3.3.5.8.5,1.3s-.2,1-.5,1.3c-.3.3-.8.5-1.3.5s-.9-.2-1.3-.5-.5-.8-.5-1.3.2-1,.5-1.3ZM636.2,286.5h-3v-14.1h3v14.1Z"/>
    <path class="st0" d="M649,272.2c1.6,0,2.9.5,3.9,1.4.9,1,1.4,2.3,1.4,4v8.8h-3.1v-7.9c0-1.1-.3-1.9-.9-2.5-.6-.6-1.4-.9-2.5-.9-1.1,0-2.1.4-2.8,1.1-.7.7-1.1,1.6-1.2,2.8v7.5h-3.1v-14.1h3.1v2.7c1-1.9,2.7-2.8,5.2-2.8Z"/>
    <path class="st0" d="M671.2,272.3v12.8c0,2-.7,3.6-2,4.8-1.3,1.2-3.1,1.8-5.3,1.8s-4-.6-5.9-1.9l1.3-2.2c1.4,1,2.9,1.5,4.4,1.5s2.4-.4,3.2-1.1,1.2-1.7,1.2-2.9v-1.8c-1,1.6-2.6,2.4-4.7,2.4s-3.5-.6-4.6-1.9c-1.2-1.3-1.8-2.9-1.8-4.9s.6-3.6,1.7-4.9c1.2-1.2,2.7-1.9,4.5-1.9,2.2,0,3.8.8,4.8,2.4v-2.3h3ZM664.1,283.4c1.2,0,2.2-.4,2.9-1.2s1.1-1.9,1.1-3.1-.4-2.3-1.1-3.1c-.8-.8-1.7-1.2-2.9-1.2s-2.2.4-3,1.2c-.8.8-1.2,1.8-1.2,3.1,0,1.3.4,2.3,1.2,3.1s1.7,1.2,3,1.2Z"/>
  </g>
</svg>