<?xml version="1.0" encoding="UTF-8"?>
<svg xmlns="http://www.w3.org/2000/svg" id="Capa_2" data-name="Capa 2" viewBox="0 0 1218.34 1306.38">
  <defs>
    <style>
      .cls-1 {
        fill: #ed1c25;
      }
    </style>
  </defs>
  <g id="Layer_1" data-name="Layer 1">
    <g>
      <g>
        <polygon points="170.05 925.39 170.05 1086.81 133.69 1086.81 133.69 973.38 85 1054.55 36.1 973.38 36.1 1086.81 0 1086.81 0 925.39 46.84 925.39 85 991.09 122.3 925.39 170.05 925.39"></polygon>
        <rect x="200.76" y="925.4" width="36.15" height="161.41"></rect>
        <polygon points="296.27 959.05 252.58 959.05 252.58 925.4 376.3 925.4 376.3 959.05 332.63 959.05 332.63 1086.81 296.27 1086.81 296.27 959.05"></polygon>
        <path d="M389.73,1084.79v-33.65c7.46,1.38,25.67,4.52,47.99,4.52,18.65,0,27.93-2.47,27.93-12.69,0-11.86-7.96-13.45-34.12-25.49-25.44-11.6-44.32-21.82-44.32-49.11,0-33.66,20.47-45.26,60.91-45.26,20.73,0,35.71,1.85,45.05,2.96v33.66c-9.1-.91-25.7-3.17-44.14-3.17-21.82,0-26.14,2.26-26.14,11.11s11.86,13.66,29.57,21.61c26.61,12.04,48.43,22.08,48.43,52.77s-20,47.05-63.18,47.05c-17.06,0-33.01-1.82-47.99-4.32"></path>
        <path d="M522.52,1032.27v-106.87h36.15v105.49c0,18.41,10.93,24.76,28.2,24.76s28.43-6.35,28.43-24.76v-105.49h36.15v106.87c0,39.09-25.69,56.83-64.58,56.83s-64.35-17.74-64.35-56.83"></path>
        <path d="M682.36,925.38h70.49c32.98,0,51.16,12.07,51.16,41.61,0,23.43-13.42,30.72-25.67,35.5,14.56,4.29,29.78,12.28,29.78,39.3s-17.09,45.02-52.77,45.02h-72.98v-161.44ZM747.62,990.67c14.57,0,19.79-7.73,19.79-18.41,0-12.98-6.37-16.39-19.79-16.39h-29.1v34.8h29.1ZM750.12,1056.36c14.59,0,20.47-5.23,20.47-19.32,0-12.51-5.46-17.74-18.88-17.74h-33.19v37.06h31.6Z"></path>
        <rect x="829.92" y="925.4" width="36.18" height="161.41"></rect>
        <path d="M892.46,1084.79v-33.65c7.52,1.38,25.72,4.52,47.99,4.52,18.65,0,27.93-2.47,27.93-12.69,0-11.86-7.93-13.45-34.07-25.49-25.46-11.6-44.34-21.82-44.34-49.11,0-33.66,20.47-45.26,60.91-45.26,20.73,0,35.74,1.85,45.05,2.96v33.66c-9.1-.91-25.69-3.17-44.14-3.17-21.82,0-26.14,2.26-26.14,11.11s11.86,13.66,29.57,21.61c26.61,12.04,48.45,22.08,48.45,52.77s-20.05,47.05-63.23,47.05c-17.06,0-32.98-1.82-47.99-4.32"></path>
        <polygon points="1152.6 925.39 1152.6 1086.81 1116.45 1086.81 1116.45 1022.72 1059.12 1022.72 1059.12 1086.81 1022.97 1086.81 1022.97 925.39 1059.12 925.39 1059.12 989.06 1116.45 989.06 1116.45 925.39 1152.6 925.39"></polygon>
        <rect x="1182.19" y="925.4" width="36.15" height="161.41"></rect>
        <polygon points="339.57 1142.66 339.57 1304.08 303.21 1304.08 303.21 1190.65 254.52 1271.82 205.62 1190.65 205.62 1304.08 169.5 1304.08 169.5 1142.66 216.34 1142.66 254.52 1208.36 291.82 1142.66 339.57 1142.66"></polygon>
        <path d="M364.35,1223.38c0-57.74,22.06-82.99,69.6-82.99s69.55,25.26,69.55,82.99-22.03,83-69.55,83-69.6-25.26-69.6-83M466,1223.38c0-32.98-5.67-49.57-32.04-49.57s-32.07,16.59-32.07,49.57,5.7,50.02,32.07,50.02,32.04-16.83,32.04-50.02"></path>
        <polygon points="553.1 1176.3 509.43 1176.3 509.43 1142.65 633.12 1142.65 633.12 1176.3 589.46 1176.3 589.46 1304.09 553.1 1304.09 553.1 1176.3"></polygon>
        <path d="M639.06,1223.38c0-57.74,22.03-82.99,69.58-82.99s69.55,25.26,69.55,82.99-22.03,83-69.55,83-69.58-25.26-69.58-83M740.7,1223.38c0-32.98-5.7-49.57-32.07-49.57s-32.07,16.59-32.07,49.57,5.7,50.02,32.07,50.02,32.07-16.83,32.07-50.02"></path>
        <path d="M803.21,1142.68h65.49c34.57,0,56.62,12.95,56.62,51.84,0,24.99-12.51,41.15-33.19,46.17l39.79,63.41h-42.32l-34.1-57.74h-16.15v57.74h-36.15v-161.41ZM866.44,1214.96c16.36,0,21.35-8.19,21.35-20.44s-4.99-20.7-21.35-20.7h-27.08v41.15h27.08Z"></path>
        <path d="M946.93,1302.06v-33.65c7.49,1.35,25.69,4.52,47.99,4.52,18.65,0,27.96-2.5,27.96-12.69,0-11.86-7.96-13.45-34.1-25.49-25.46-11.6-44.34-21.82-44.34-49.13,0-33.63,20.44-45.23,60.91-45.23,20.73,0,35.74,1.82,45.05,2.96v33.66c-9.08-.91-25.69-3.17-44.14-3.17-21.82,0-26.14,2.26-26.14,11.11s11.86,13.66,29.57,21.61c26.61,12.04,48.45,22.06,48.45,52.75s-20.05,47.08-63.23,47.08c-17.06,0-32.98-1.82-47.99-4.32"></path>
      </g>
      <g>
        <polygon class="cls-1" points="454.53 267.84 609.18 535.69 763.81 267.84 609.18 0 454.53 267.84"></polygon>
        <polygon class="cls-1" points="918.45 535.68 609.17 535.68 763.8 803.55 1073.1 803.55 918.45 535.68"></polygon>
        <polygon class="cls-1" points="299.9 535.68 609.17 535.68 454.54 803.55 145.24 803.55 299.9 535.68"></polygon>
      </g>
    </g>
  </g>
</svg>
